<svg xmlns="http://www.w3.org/2000/svg" xmlns:oryx="http://oryx-editor.org" id="_09DBF1B9-11A6-4F79-8B29-F5FCC66A67B6" width="553" height="261" xmlns:xlink="http://www.w3.org/1999/xlink" xmlns:svg="http://www.w3.org/2000/svg"><defs><marker id="_17A71DCE-B3C8-4AF3-9D7D-06B1916590BFstart" refX="1" refY="5" markerUnits="userSpaceOnUse" markerWidth="17" markerHeight="11" orient="auto" fill="#000000" stroke="#000000"> 	  		<path id="_17A71DCE-B3C8-4AF3-9D7D-06B1916590BFconditional" d="M 0 5 L 8 0 L 16 5 L 8 10 L 0 5" fill="white" stroke="#000000" stroke-width="1" display="none"/> 			<path id="_17A71DCE-B3C8-4AF3-9D7D-06B1916590BFdefault" d="M 5 0 L 11 10" fill="white" stroke="#000000" stroke-width="1" display="none"/> 	  	</marker><marker id="_17A71DCE-B3C8-4AF3-9D7D-06B1916590BFend" refX="15" refY="6" markerUnits="userSpaceOnUse" markerWidth="15" markerHeight="12" orient="auto" fill="#000000" stroke="#000000"> 	  		<path id="_17A71DCE-B3C8-4AF3-9D7D-06B1916590BFframe2" d="M 0 1 L 15 6 L 0 11z" fill="#000000" stroke="#000000" stroke-linejoin="round" stroke-width="2"/> 	  	</marker><marker id="_46B9D8A8-3F4E-4072-9EEF-2C2026BF6257start" refX="1" refY="5" markerUnits="userSpaceOnUse" markerWidth="17" markerHeight="11" orient="auto" fill="#000000" stroke="#000000"> 	  		<path id="_46B9D8A8-3F4E-4072-9EEF-2C2026BF6257conditional" d="M 0 5 L 8 0 L 16 5 L 8 10 L 0 5" fill="white" stroke="#000000" stroke-width="1" display="none"/> 			<path id="_46B9D8A8-3F4E-4072-9EEF-2C2026BF6257default" d="M 5 0 L 11 10" fill="white" stroke="#000000" stroke-width="1" display="none"/> 	  	</marker><marker id="_46B9D8A8-3F4E-4072-9EEF-2C2026BF6257end" refX="15" refY="6" markerUnits="userSpaceOnUse" markerWidth="15" markerHeight="12" orient="auto" fill="#000000" stroke="#000000"> 	  		<path id="_46B9D8A8-3F4E-4072-9EEF-2C2026BF6257frame2" d="M 0 1 L 15 6 L 0 11z" fill="#000000" stroke="#000000" stroke-linejoin="round" stroke-width="2"/> 	  	</marker><marker id="_E153F025-D91A-4FB2-B02E-C50AE9329B01start" refX="1" refY="5" markerUnits="userSpaceOnUse" markerWidth="17" markerHeight="11" orient="auto" fill="#000000" stroke="#000000"> 	  		<path id="_E153F025-D91A-4FB2-B02E-C50AE9329B01conditional" d="M 0 5 L 8 0 L 16 5 L 8 10 L 0 5" fill="white" stroke="#000000" stroke-width="1" display="none"/> 			<path id="_E153F025-D91A-4FB2-B02E-C50AE9329B01default" d="M 5 0 L 11 10" fill="white" stroke="#000000" stroke-width="1" display="none"/> 	  	</marker><marker id="_E153F025-D91A-4FB2-B02E-C50AE9329B01end" refX="15" refY="6" markerUnits="userSpaceOnUse" markerWidth="15" markerHeight="12" orient="auto" fill="#000000" stroke="#000000"> 	  		<path id="_E153F025-D91A-4FB2-B02E-C50AE9329B01frame2" d="M 0 1 L 15 6 L 0 11z" fill="#000000" stroke="#000000" stroke-linejoin="round" stroke-width="2"/> 	  	</marker></defs><g stroke="none" font-family="Verdana, sans-serif" font-size-adjust="none" font-style="normal" font-variant="normal" font-weight="normal" line-heigth="normal" font-size="12"><g class="stencils" transform="translate(15, 16)"><g class="me"/><g class="children"><g id="_5CBD90B3-1CB4-4F6D-9FD4-EB1F5B752F12" bpmn2nodeid="processStartEvent"><g class="stencils" transform="translate(120, 165)"><g class="me"><g pointer-events="fill" id="_5CBD90B3-1CB4-4F6D-9FD4-EB1F5B752F12">        <defs id="_5CBD90B3-1CB4-4F6D-9FD4-EB1F5B752F12__5CBD90B3-1CB4-4F6D-9FD4-EB1F5B752F12_5"> 		<radialGradient id="_5CBD90B3-1CB4-4F6D-9FD4-EB1F5B752F12background" cx="10%" cy="10%" r="100%" fx="10%" fy="10%"> 			<stop offset="0%" stop-color="#ffffff" stop-opacity="1" id="_5CBD90B3-1CB4-4F6D-9FD4-EB1F5B752F12__5CBD90B3-1CB4-4F6D-9FD4-EB1F5B752F12_6"/> 			<stop id="_5CBD90B3-1CB4-4F6D-9FD4-EB1F5B752F12fill_el" offset="100%" stop-color="#9acd32" stop-opacity="1"/> 		</radialGradient> 	</defs> 	     <circle id="_5CBD90B3-1CB4-4F6D-9FD4-EB1F5B752F12bg_frame" cx="15" cy="15" r="15" stroke="#000000" fill="url(#_5CBD90B3-1CB4-4F6D-9FD4-EB1F5B752F12background) white" stroke-width="1" style="stroke-dasharray: 5.5, 3"/>      <circle id="_5CBD90B3-1CB4-4F6D-9FD4-EB1F5B752F12frame" cx="15" cy="15" r="15" stroke="#000000" fill="none" stroke-width="1" display="inherit"/>  	<text font-size="11" id="_5CBD90B3-1CB4-4F6D-9FD4-EB1F5B752F12text_name" x="15" y="32" oryx:align="top center" stroke="black" stroke-width="0pt" letter-spacing="-0.01px" fill="#000000" text-anchor="middle" transform="rotate(0 15 32)" visibility="inherit" oryx:fontSize="11"/>   </g></g><g class="children" style="overflow:hidden"/><g class="edge"/></g><g class="controls"><g class="dockers"/><g class="magnets" transform="translate(120, 165)"><g pointer-events="all" display="none" transform="translate(7, 7)"><circle cx="8" cy="8" r="4" stroke="none" fill="red" fill-opacity="0.3"/></g></g></g></g><g id="_20885897-7382-41B3-B354-B7F5A3341E3F" bpmn2nodeid="_BC607EB4-E403-418F-A41D-95DCCAFF8F8B"><g class="stencils" transform="translate(195, 135)"><g class="me"><g pointer-events="fill" oryx:minimumSize="50 40" id="_20885897-7382-41B3-B354-B7F5A3341E3F">   	<defs id="_20885897-7382-41B3-B354-B7F5A3341E3F__20885897-7382-41B3-B354-B7F5A3341E3F_17"> 		<radialGradient id="_20885897-7382-41B3-B354-B7F5A3341E3Fbackground" cx="10%" cy="10%" r="100%" fx="10%" fy="10%"> 			<stop offset="0%" stop-color="#ffffff" stop-opacity="1" id="_20885897-7382-41B3-B354-B7F5A3341E3F__20885897-7382-41B3-B354-B7F5A3341E3F_18"/> 			<stop id="_20885897-7382-41B3-B354-B7F5A3341E3Ffill_el" offset="100%" stop-color="#fafad2" stop-opacity="1"/> 		</radialGradient> 		<radialGradient id="_20885897-7382-41B3-B354-B7F5A3341E3Fborderbackground" cx="10%" cy="10%" r="100%" fx="10%" fy="10%"> 			<stop offset="0%" stop-color="#ffffff" stop-opacity="1" id="_20885897-7382-41B3-B354-B7F5A3341E3F__20885897-7382-41B3-B354-B7F5A3341E3F_19"/> 			<stop id="_20885897-7382-41B3-B354-B7F5A3341E3Ffill_border" offset="100%" stop-color="#000000" stop-opacity="1" stroke="#000000"/> 		</radialGradient> 	</defs> 	 	<rect id="_20885897-7382-41B3-B354-B7F5A3341E3Ftext_frame" oryx:anchors="bottom top right left" x="1" y="1" width="94" height="79" rx="10" ry="10" stroke="none" stroke-width="0" fill="none"/> 	<rect id="_20885897-7382-41B3-B354-B7F5A3341E3Fbg_frame" oryx:resize="vertical horizontal" x="0" y="0" width="100" height="80" rx="10" ry="10" stroke="#000000" stroke-width="1" fill="url(#_20885897-7382-41B3-B354-B7F5A3341E3Fbackground) #ffffcc"/> 		<text font-size="12" id="_20885897-7382-41B3-B354-B7F5A3341E3Ftext_name" x="50" y="40" oryx:align="middle center" oryx:fittoelem="text_frame" stroke="black" text-anchor="middle" stroke-width="0pt" letter-spacing="-0.01px" fill="#000000" transform="rotate(0 50 40)" visibility="inherit" oryx:fontSize="12"><tspan x="50" y="40" dy="-1">evaluate DMN </tspan><tspan x="50" y="40" dy="11">model</tspan></text>     <g id="_20885897-7382-41B3-B354-B7F5A3341E3FmanualTask" transform="scale(0.7,0.7) translate(8,8)" display="none">     	<path oryx:anchors="top left" id="_20885897-7382-41B3-B354-B7F5A3341E3Fframe" style="opacity:1;fill:none;fill-opacity:1;stroke-width:1" d="M0.5,3.751l4.083-3.25c0,0,11.166,0.083,12.083,0.083s-2.417,2.917-1.5,2.917     s11.667,0,12.584,0c1.166,1.708-0.168,3.167-0.834,3.667s0.875,1.917-1,4.417c-0.75,0.25,0.75,1.875-1.333,3.333     c-1.167,0.583,0.583,1.542-1.25,2.833c-1.167,0-20.833,0.083-20.833,0.083l-2-1.333V3.751z" stroke="#000000"/> 		<path id="_20885897-7382-41B3-B354-B7F5A3341E3Fframe2" oryx:anchors="top left" style="opacity:1;fill:none;stroke-width:2" d="M 13.5 7 L 27 7" stroke="#000000"/> 		<path id="_20885897-7382-41B3-B354-B7F5A3341E3Fframe3" oryx:anchors="top left" style="opacity:1;fill:none;stroke-width:2" d="M 13.5 11 L 26 11" stroke="#000000"/> 		<path id="_20885897-7382-41B3-B354-B7F5A3341E3Fframe4" oryx:anchors="top left" style="opacity:1;fill:none;stroke-width:1.5" d="M 14 14.5 L 25 14.5" stroke="#000000"/> 		<path id="_20885897-7382-41B3-B354-B7F5A3341E3Fframe5" oryx:anchors="top left" style="opacity:1;fill:none;stroke-width:1.5" d="M 8.2 3.1 L 15 3.1" stroke="#000000"/> 	</g> 	 	<g id="_20885897-7382-41B3-B354-B7F5A3341E3FbusinessRuleTask" transform="scale(0.7,0.7) translate(8,8)" display="inherit"> 		<rect id="_20885897-7382-41B3-B354-B7F5A3341E3Fframe6" oryx:anchors="top left" x="0" y="0" width="22" height="4" style="opacity:1;fill:#B3B1B3;fill-opacity:1;" stroke="#000000"/> 		<rect id="_20885897-7382-41B3-B354-B7F5A3341E3Fframe7" oryx:anchors="top left" x="0" y="4" style="opacity:1;fill:none;" width="22" height="12" stroke="#000000"/> 		<path id="_20885897-7382-41B3-B354-B7F5A3341E3Fframe8" oryx:anchors="top left" style="opacity:1;fill:none;" d="M 0 10 L 22 10" stroke="#000000"/> 		<path id="_20885897-7382-41B3-B354-B7F5A3341E3Fframe9" oryx:anchors="top left" style="opacity:1; fill:none;" d="M 7 4 L 7 16" stroke="#000000"/> 	</g> 	 	<g id="_20885897-7382-41B3-B354-B7F5A3341E3FscriptTask" transform="scale(0.7,0.7) translate(8,8)" display="none"> 		<path oryx:anchors="top left" id="_20885897-7382-41B3-B354-B7F5A3341E3Fframe10" style="opacity:1;fill:none;" stroke="#000000" d="M6.402,0.5h14.5c0,0-5.833,2.833-5.833,5.583s4.417,6,4.417,9.167    s-4.167,5.083-4.167,5.083H0.235c0,0,5-2.667,5-5s-4.583-6.75-4.583-9.25S6.402,0.5,6.402,0.5z"/> 		<path oryx:anchors="top left" id="_20885897-7382-41B3-B354-B7F5A3341E3Fframe11" style="opacity:1;fill:none;stroke-width:1.5" d="M 3.5 4.5 L 13.5 4.5" stroke="#000000"/> 		<path oryx:anchors="top left" id="_20885897-7382-41B3-B354-B7F5A3341E3Fframe12" style="opacity:1;fill:none;stroke-width:1.5" d="M 3.8 8.5 L 13.8 8.5" stroke="#000000"/> 		<path oryx:anchors="top left" id="_20885897-7382-41B3-B354-B7F5A3341E3Fframe13" style="opacity:1;fill:none;stroke-width:1.5" d="M 6.3 12.5 L 16.3 12.5" stroke="#000000"/> 		<path oryx:anchors="top left" id="_20885897-7382-41B3-B354-B7F5A3341E3Fframe14" style="opacity:1;fill:none;stroke-width:1.5" d="M 6.5 16.5 L 16.5 16.5" stroke="#000000"/> 	</g> 	 	<g id="_20885897-7382-41B3-B354-B7F5A3341E3FuserTask" transform="scale(0.7,0.7) translate(8,8)" display="none"> 		<path id="_20885897-7382-41B3-B354-B7F5A3341E3Fframe15" oryx:anchors="top left" style="opacity:1;fill:#F4F6F7" stroke="#000000" d="M0.585,24.167h24.083v-7.833c0,0-2.333-3.917-7.083-5.167h-9.25    c-4.417,1.333-7.833,5.75-7.833,5.75L0.585,24.167z"/> 		<path id="_20885897-7382-41B3-B354-B7F5A3341E3Fframe16" oryx:anchors="top left" style="opacity:1;fill:none" d="M 6 20 L 6 24" stroke="#000000"/> 		<path id="_20885897-7382-41B3-B354-B7F5A3341E3Fframe17" oryx:anchors="top left" style="opacity:1;fill:none" d="M 20 20 L 20 24" stroke="#000000"/> 		<circle id="_20885897-7382-41B3-B354-B7F5A3341E3Fframe18" oryx:anchors="top left" fill="black" cx="13.002" cy="5.916" r="5.417" stroke="#000000"/> 		<path id="_20885897-7382-41B3-B354-B7F5A3341E3Fframe19" oryx:anchors="top left" style="opacity:1;fill:#F0EFF0;" stroke="#000000" d="M8.043,7.083c0,0,2.814-2.426,5.376-1.807s4.624-0.693,4.624-0.693    c0.25,1.688,0.042,3.75-1.458,5.584c0,0,1.083,0.75,1.083,1.5s0.125,1.875-1,3s-5.5,1.25-6.75,0S8.668,12.834,8.668,12    s0.583-1.25,1.25-1.917C8.835,9.5,7.419,7.708,8.043,7.083z"/> 	</g> 	 	<g id="_20885897-7382-41B3-B354-B7F5A3341E3FserviceTask" transform="scale(0.7,0.7) translate(8,8)" display="none"> 		<polygon oryx:anchors="top left" id="_20885897-7382-41B3-B354-B7F5A3341E3Fframe20" style="opacity:1;fill:#ffffff" stroke="#000000" points="15.392,5.064 17.954,2.502 20.347,4.895 17.786,7.455     18.729,9.732 22.353,9.732 22.353,13.115 18.731,13.115 17.788,15.392 20.351,17.955 17.958,20.347 15.397,17.786 13.12,18.729     13.12,22.353 9.737,22.353 9.737,18.731 7.46,17.788 4.897,20.35 2.506,17.958 5.066,15.397 4.124,13.12 0.5,13.12 0.5,9.737     4.121,9.737 5.065,7.461 2.503,4.898 4.895,2.506 7.455,5.066 9.732,4.125 9.732,0.5 13.116,0.5 13.116,4.121 "/> 		<circle oryx:anchors="top left" id="_20885897-7382-41B3-B354-B7F5A3341E3Fframe21" style="opacity:1;fill:none" stroke="#000000" cx="11.427" cy="11.426" r="3.714"/> 		<polygon oryx:anchors="top left" id="_20885897-7382-41B3-B354-B7F5A3341E3Fframe22" style="opacity:1;fill:#ffffff" stroke="#000000" points="21.392,11.064 23.954,8.502 26.347,10.895 23.786,13.455     24.729,15.732 28.353,15.732 28.353,19.115 24.731,19.115 23.788,21.392 26.351,23.955 23.958,26.347 21.397,23.786 19.12,24.729     19.12,28.353 15.737,28.353 15.737,24.731 13.46,23.788 10.897,26.35 8.506,23.958 11.066,21.397 10.124,19.12 6.5,19.12     6.5,15.737 10.121,15.737 11.065,13.461 8.503,10.898 10.895,8.506 13.455,11.066 15.732,10.125 15.732,6.5 19.116,6.5     19.116,10.121 "/> 		<circle oryx:anchors="top left" id="_20885897-7382-41B3-B354-B7F5A3341E3Fframe23" style="opacity:1;fill:none;" stroke="#000000" cx="17.427" cy="17.426" r="3.714"/> 	</g> 	 	<g id="_20885897-7382-41B3-B354-B7F5A3341E3FsendTask" display="none"> 		<path id="_20885897-7382-41B3-B354-B7F5A3341E3Fstframe24" oryx:anchors="left top" stroke="#FFFFFF" fill="black" stroke-width="1" d="M8,11 L8,21 L24,21 L24,11 L16,17z"/> 		<path id="_20885897-7382-41B3-B354-B7F5A3341E3Fstframe25" oryx:anchors="left top" stroke="#FFFFFF" fill="black" stroke-width="1" d="M7,10 L16,17 L25 10z"/> 	</g> 	 	<g id="_20885897-7382-41B3-B354-B7F5A3341E3FreceiveTask" display="none"> 		<path id="_20885897-7382-41B3-B354-B7F5A3341E3Fframe26" oryx:anchors="left top" stroke="#000000" fill="none" stroke-width="1" d="M8,11 L8,21 L24,21 L24,11z M8,11 L16,17 L24,11"/> 	</g> 	 	<g id="_20885897-7382-41B3-B354-B7F5A3341E3Fnone" display="inherit"/>  	<g id="_20885897-7382-41B3-B354-B7F5A3341E3Fsequential" display="none">         <path oryx:anchors="bottom" fill="none" stroke="#000000" stroke-width="2" d="M46,76h10M46,72h10 M46,68h10" id="_20885897-7382-41B3-B354-B7F5A3341E3F__20885897-7382-41B3-B354-B7F5A3341E3F_20"/>     </g>   </g></g><g class="children" style="overflow:hidden"/><g class="edge"/></g><g class="controls"><g class="dockers"/><g class="magnets" transform="translate(195, 135)"><g pointer-events="all" display="none" transform="translate(-7, 12)"><circle cx="8" cy="8" r="4" stroke="none" fill="red" fill-opacity="0.3"/></g><g pointer-events="all" display="none" transform="translate(-7, 32)"><circle cx="8" cy="8" r="4" stroke="none" fill="red" fill-opacity="0.3"/></g><g pointer-events="all" display="none" transform="translate(-7, 52)"><circle cx="8" cy="8" r="4" stroke="none" fill="red" fill-opacity="0.3"/></g><g pointer-events="all" display="none" transform="translate(17, 71)"><circle cx="8" cy="8" r="4" stroke="none" fill="red" fill-opacity="0.3"/></g><g pointer-events="all" display="none" transform="translate(42, 71)"><circle cx="8" cy="8" r="4" stroke="none" fill="red" fill-opacity="0.3"/></g><g pointer-events="all" display="none" transform="translate(67, 71)"><circle cx="8" cy="8" r="4" stroke="none" fill="red" fill-opacity="0.3"/></g><g pointer-events="all" display="none" transform="translate(91, 12)"><circle cx="8" cy="8" r="4" stroke="none" fill="red" fill-opacity="0.3"/></g><g pointer-events="all" display="none" transform="translate(91, 32)"><circle cx="8" cy="8" r="4" stroke="none" fill="red" fill-opacity="0.3"/></g><g pointer-events="all" display="none" transform="translate(91, 52)"><circle cx="8" cy="8" r="4" stroke="none" fill="red" fill-opacity="0.3"/></g><g pointer-events="all" display="none" transform="translate(17, -7)"><circle cx="8" cy="8" r="4" stroke="none" fill="red" fill-opacity="0.3"/></g><g pointer-events="all" display="none" transform="translate(42, -7)"><circle cx="8" cy="8" r="4" stroke="none" fill="red" fill-opacity="0.3"/></g><g pointer-events="all" display="none" transform="translate(67, -7)"><circle cx="8" cy="8" r="4" stroke="none" fill="red" fill-opacity="0.3"/></g><g pointer-events="all" display="none" transform="translate(42, 32)"><circle cx="8" cy="8" r="4" stroke="none" fill="red" fill-opacity="0.3"/></g></g></g></g><g id="_83C90275-B8DD-4200-A318-9FE4A9498C8C" bpmn2nodeid="_3001241A-F32B-4B7E-A0B6-523AFDEC1B6D"><g class="stencils" transform="translate(340, 140)"><g class="me"><g pointer-events="fill" oryx:minimumSize="50 40" id="_83C90275-B8DD-4200-A318-9FE4A9498C8C">   	<defs id="_83C90275-B8DD-4200-A318-9FE4A9498C8C__83C90275-B8DD-4200-A318-9FE4A9498C8C_17"> 		<radialGradient id="_83C90275-B8DD-4200-A318-9FE4A9498C8Cbackground" cx="10%" cy="10%" r="100%" fx="10%" fy="10%"> 			<stop offset="0%" stop-color="#ffffff" stop-opacity="1" id="_83C90275-B8DD-4200-A318-9FE4A9498C8C__83C90275-B8DD-4200-A318-9FE4A9498C8C_18"/> 			<stop id="_83C90275-B8DD-4200-A318-9FE4A9498C8Cfill_el" offset="100%" stop-color="#fafad2" stop-opacity="1"/> 		</radialGradient> 		<radialGradient id="_83C90275-B8DD-4200-A318-9FE4A9498C8Cborderbackground" cx="10%" cy="10%" r="100%" fx="10%" fy="10%"> 			<stop offset="0%" stop-color="#ffffff" stop-opacity="1" id="_83C90275-B8DD-4200-A318-9FE4A9498C8C__83C90275-B8DD-4200-A318-9FE4A9498C8C_19"/> 			<stop id="_83C90275-B8DD-4200-A318-9FE4A9498C8Cfill_border" offset="100%" stop-color="#000000" stop-opacity="1" stroke="#000000"/> 		</radialGradient> 	</defs> 	 	<rect id="_83C90275-B8DD-4200-A318-9FE4A9498C8Ctext_frame" oryx:anchors="bottom top right left" x="1" y="1" width="94" height="79" rx="10" ry="10" stroke="none" stroke-width="0" fill="none"/> 	<rect id="_83C90275-B8DD-4200-A318-9FE4A9498C8Cbg_frame" oryx:resize="vertical horizontal" x="0" y="0" width="100" height="80" rx="10" ry="10" stroke="#000000" stroke-width="1" fill="url(#_83C90275-B8DD-4200-A318-9FE4A9498C8Cbackground) #ffffcc"/> 		<text font-size="12" id="_83C90275-B8DD-4200-A318-9FE4A9498C8Ctext_name" x="50" y="40" oryx:align="middle center" oryx:fittoelem="text_frame" stroke="black" text-anchor="middle" stroke-width="0pt" letter-spacing="-0.01px" fill="#000000" transform="rotate(0 50 40)" visibility="inherit" oryx:fontSize="12"><tspan x="50" y="40" dy="5">printout</tspan></text>     <g id="_83C90275-B8DD-4200-A318-9FE4A9498C8CmanualTask" transform="scale(0.7,0.7) translate(8,8)" display="none">     	<path oryx:anchors="top left" id="_83C90275-B8DD-4200-A318-9FE4A9498C8Cframe" style="opacity:1;fill:none;fill-opacity:1;stroke-width:1" d="M0.5,3.751l4.083-3.25c0,0,11.166,0.083,12.083,0.083s-2.417,2.917-1.5,2.917     s11.667,0,12.584,0c1.166,1.708-0.168,3.167-0.834,3.667s0.875,1.917-1,4.417c-0.75,0.25,0.75,1.875-1.333,3.333     c-1.167,0.583,0.583,1.542-1.25,2.833c-1.167,0-20.833,0.083-20.833,0.083l-2-1.333V3.751z" stroke="#000000"/> 		<path id="_83C90275-B8DD-4200-A318-9FE4A9498C8Cframe2" oryx:anchors="top left" style="opacity:1;fill:none;stroke-width:2" d="M 13.5 7 L 27 7" stroke="#000000"/> 		<path id="_83C90275-B8DD-4200-A318-9FE4A9498C8Cframe3" oryx:anchors="top left" style="opacity:1;fill:none;stroke-width:2" d="M 13.5 11 L 26 11" stroke="#000000"/> 		<path id="_83C90275-B8DD-4200-A318-9FE4A9498C8Cframe4" oryx:anchors="top left" style="opacity:1;fill:none;stroke-width:1.5" d="M 14 14.5 L 25 14.5" stroke="#000000"/> 		<path id="_83C90275-B8DD-4200-A318-9FE4A9498C8Cframe5" oryx:anchors="top left" style="opacity:1;fill:none;stroke-width:1.5" d="M 8.2 3.1 L 15 3.1" stroke="#000000"/> 	</g> 	 	<g id="_83C90275-B8DD-4200-A318-9FE4A9498C8CbusinessRuleTask" transform="scale(0.7,0.7) translate(8,8)" display="none"> 		<rect id="_83C90275-B8DD-4200-A318-9FE4A9498C8Cframe6" oryx:anchors="top left" x="0" y="0" width="22" height="4" style="opacity:1;fill:#B3B1B3;fill-opacity:1;" stroke="#000000"/> 		<rect id="_83C90275-B8DD-4200-A318-9FE4A9498C8Cframe7" oryx:anchors="top left" x="0" y="4" style="opacity:1;fill:none;" width="22" height="12" stroke="#000000"/> 		<path id="_83C90275-B8DD-4200-A318-9FE4A9498C8Cframe8" oryx:anchors="top left" style="opacity:1;fill:none;" d="M 0 10 L 22 10" stroke="#000000"/> 		<path id="_83C90275-B8DD-4200-A318-9FE4A9498C8Cframe9" oryx:anchors="top left" style="opacity:1; fill:none;" d="M 7 4 L 7 16" stroke="#000000"/> 	</g> 	 	<g id="_83C90275-B8DD-4200-A318-9FE4A9498C8CscriptTask" transform="scale(0.7,0.7) translate(8,8)" display="inherit"> 		<path oryx:anchors="top left" id="_83C90275-B8DD-4200-A318-9FE4A9498C8Cframe10" style="opacity:1;fill:none;" stroke="#000000" d="M6.402,0.5h14.5c0,0-5.833,2.833-5.833,5.583s4.417,6,4.417,9.167    s-4.167,5.083-4.167,5.083H0.235c0,0,5-2.667,5-5s-4.583-6.75-4.583-9.25S6.402,0.5,6.402,0.5z"/> 		<path oryx:anchors="top left" id="_83C90275-B8DD-4200-A318-9FE4A9498C8Cframe11" style="opacity:1;fill:none;stroke-width:1.5" d="M 3.5 4.5 L 13.5 4.5" stroke="#000000"/> 		<path oryx:anchors="top left" id="_83C90275-B8DD-4200-A318-9FE4A9498C8Cframe12" style="opacity:1;fill:none;stroke-width:1.5" d="M 3.8 8.5 L 13.8 8.5" stroke="#000000"/> 		<path oryx:anchors="top left" id="_83C90275-B8DD-4200-A318-9FE4A9498C8Cframe13" style="opacity:1;fill:none;stroke-width:1.5" d="M 6.3 12.5 L 16.3 12.5" stroke="#000000"/> 		<path oryx:anchors="top left" id="_83C90275-B8DD-4200-A318-9FE4A9498C8Cframe14" style="opacity:1;fill:none;stroke-width:1.5" d="M 6.5 16.5 L 16.5 16.5" stroke="#000000"/> 	</g> 	 	<g id="_83C90275-B8DD-4200-A318-9FE4A9498C8CuserTask" transform="scale(0.7,0.7) translate(8,8)" display="none"> 		<path id="_83C90275-B8DD-4200-A318-9FE4A9498C8Cframe15" oryx:anchors="top left" style="opacity:1;fill:#F4F6F7" stroke="#000000" d="M0.585,24.167h24.083v-7.833c0,0-2.333-3.917-7.083-5.167h-9.25    c-4.417,1.333-7.833,5.75-7.833,5.75L0.585,24.167z"/> 		<path id="_83C90275-B8DD-4200-A318-9FE4A9498C8Cframe16" oryx:anchors="top left" style="opacity:1;fill:none" d="M 6 20 L 6 24" stroke="#000000"/> 		<path id="_83C90275-B8DD-4200-A318-9FE4A9498C8Cframe17" oryx:anchors="top left" style="opacity:1;fill:none" d="M 20 20 L 20 24" stroke="#000000"/> 		<circle id="_83C90275-B8DD-4200-A318-9FE4A9498C8Cframe18" oryx:anchors="top left" fill="black" cx="13.002" cy="5.916" r="5.417" stroke="#000000"/> 		<path id="_83C90275-B8DD-4200-A318-9FE4A9498C8Cframe19" oryx:anchors="top left" style="opacity:1;fill:#F0EFF0;" stroke="#000000" d="M8.043,7.083c0,0,2.814-2.426,5.376-1.807s4.624-0.693,4.624-0.693    c0.25,1.688,0.042,3.75-1.458,5.584c0,0,1.083,0.75,1.083,1.5s0.125,1.875-1,3s-5.5,1.25-6.75,0S8.668,12.834,8.668,12    s0.583-1.25,1.25-1.917C8.835,9.5,7.419,7.708,8.043,7.083z"/> 	</g> 	 	<g id="_83C90275-B8DD-4200-A318-9FE4A9498C8CserviceTask" transform="scale(0.7,0.7) translate(8,8)" display="none"> 		<polygon oryx:anchors="top left" id="_83C90275-B8DD-4200-A318-9FE4A9498C8Cframe20" style="opacity:1;fill:#ffffff" stroke="#000000" points="15.392,5.064 17.954,2.502 20.347,4.895 17.786,7.455     18.729,9.732 22.353,9.732 22.353,13.115 18.731,13.115 17.788,15.392 20.351,17.955 17.958,20.347 15.397,17.786 13.12,18.729     13.12,22.353 9.737,22.353 9.737,18.731 7.46,17.788 4.897,20.35 2.506,17.958 5.066,15.397 4.124,13.12 0.5,13.12 0.5,9.737     4.121,9.737 5.065,7.461 2.503,4.898 4.895,2.506 7.455,5.066 9.732,4.125 9.732,0.5 13.116,0.5 13.116,4.121 "/> 		<circle oryx:anchors="top left" id="_83C90275-B8DD-4200-A318-9FE4A9498C8Cframe21" style="opacity:1;fill:none" stroke="#000000" cx="11.427" cy="11.426" r="3.714"/> 		<polygon oryx:anchors="top left" id="_83C90275-B8DD-4200-A318-9FE4A9498C8Cframe22" style="opacity:1;fill:#ffffff" stroke="#000000" points="21.392,11.064 23.954,8.502 26.347,10.895 23.786,13.455     24.729,15.732 28.353,15.732 28.353,19.115 24.731,19.115 23.788,21.392 26.351,23.955 23.958,26.347 21.397,23.786 19.12,24.729     19.12,28.353 15.737,28.353 15.737,24.731 13.46,23.788 10.897,26.35 8.506,23.958 11.066,21.397 10.124,19.12 6.5,19.12     6.5,15.737 10.121,15.737 11.065,13.461 8.503,10.898 10.895,8.506 13.455,11.066 15.732,10.125 15.732,6.5 19.116,6.5     19.116,10.121 "/> 		<circle oryx:anchors="top left" id="_83C90275-B8DD-4200-A318-9FE4A9498C8Cframe23" style="opacity:1;fill:none;" stroke="#000000" cx="17.427" cy="17.426" r="3.714"/> 	</g> 	 	<g id="_83C90275-B8DD-4200-A318-9FE4A9498C8CsendTask" display="none"> 		<path id="_83C90275-B8DD-4200-A318-9FE4A9498C8Cstframe24" oryx:anchors="left top" stroke="#FFFFFF" fill="black" stroke-width="1" d="M8,11 L8,21 L24,21 L24,11 L16,17z"/> 		<path id="_83C90275-B8DD-4200-A318-9FE4A9498C8Cstframe25" oryx:anchors="left top" stroke="#FFFFFF" fill="black" stroke-width="1" d="M7,10 L16,17 L25 10z"/> 	</g> 	 	<g id="_83C90275-B8DD-4200-A318-9FE4A9498C8CreceiveTask" display="none"> 		<path id="_83C90275-B8DD-4200-A318-9FE4A9498C8Cframe26" oryx:anchors="left top" stroke="#000000" fill="none" stroke-width="1" d="M8,11 L8,21 L24,21 L24,11z M8,11 L16,17 L24,11"/> 	</g> 	 	<g id="_83C90275-B8DD-4200-A318-9FE4A9498C8Cnone" display="inherit"/>  	<g id="_83C90275-B8DD-4200-A318-9FE4A9498C8Csequential" display="none">         <path oryx:anchors="bottom" fill="none" stroke="#000000" stroke-width="2" d="M46,76h10M46,72h10 M46,68h10" id="_83C90275-B8DD-4200-A318-9FE4A9498C8C__83C90275-B8DD-4200-A318-9FE4A9498C8C_20"/>     </g>   </g></g><g class="children" style="overflow:hidden"/><g class="edge"/></g><g class="controls"><g class="dockers"/><g class="magnets" transform="translate(340, 140)"><g pointer-events="all" display="none" transform="translate(-7, 12)"><circle cx="8" cy="8" r="4" stroke="none" fill="red" fill-opacity="0.3"/></g><g pointer-events="all" display="none" transform="translate(-7, 32)"><circle cx="8" cy="8" r="4" stroke="none" fill="red" fill-opacity="0.3"/></g><g pointer-events="all" display="none" transform="translate(-7, 52)"><circle cx="8" cy="8" r="4" stroke="none" fill="red" fill-opacity="0.3"/></g><g pointer-events="all" display="none" transform="translate(17, 71)"><circle cx="8" cy="8" r="4" stroke="none" fill="red" fill-opacity="0.3"/></g><g pointer-events="all" display="none" transform="translate(42, 71)"><circle cx="8" cy="8" r="4" stroke="none" fill="red" fill-opacity="0.3"/></g><g pointer-events="all" display="none" transform="translate(67, 71)"><circle cx="8" cy="8" r="4" stroke="none" fill="red" fill-opacity="0.3"/></g><g pointer-events="all" display="none" transform="translate(91, 12)"><circle cx="8" cy="8" r="4" stroke="none" fill="red" fill-opacity="0.3"/></g><g pointer-events="all" display="none" transform="translate(91, 32)"><circle cx="8" cy="8" r="4" stroke="none" fill="red" fill-opacity="0.3"/></g><g pointer-events="all" display="none" transform="translate(91, 52)"><circle cx="8" cy="8" r="4" stroke="none" fill="red" fill-opacity="0.3"/></g><g pointer-events="all" display="none" transform="translate(17, -7)"><circle cx="8" cy="8" r="4" stroke="none" fill="red" fill-opacity="0.3"/></g><g pointer-events="all" display="none" transform="translate(42, -7)"><circle cx="8" cy="8" r="4" stroke="none" fill="red" fill-opacity="0.3"/></g><g pointer-events="all" display="none" transform="translate(67, -7)"><circle cx="8" cy="8" r="4" stroke="none" fill="red" fill-opacity="0.3"/></g><g pointer-events="all" display="none" transform="translate(42, 32)"><circle cx="8" cy="8" r="4" stroke="none" fill="red" fill-opacity="0.3"/></g></g></g></g><g id="_F1E012FE-762F-4FA4-B6C7-CACE9B87C91C" bpmn2nodeid="_4F46600C-C264-4FAD-8D9A-EC6F4EEDD578"><g class="stencils" transform="translate(485, 166)"><g class="me"><g pointer-events="fill" id="_F1E012FE-762F-4FA4-B6C7-CACE9B87C91C">      <defs id="_F1E012FE-762F-4FA4-B6C7-CACE9B87C91C__F1E012FE-762F-4FA4-B6C7-CACE9B87C91C_5"> 		<radialGradient id="_F1E012FE-762F-4FA4-B6C7-CACE9B87C91Cbackground" cx="10%" cy="10%" r="100%" fx="10%" fy="10%"> 			<stop offset="0%" stop-color="#ffffff" stop-opacity="1" id="_F1E012FE-762F-4FA4-B6C7-CACE9B87C91C__F1E012FE-762F-4FA4-B6C7-CACE9B87C91C_6"/> 			<stop id="_F1E012FE-762F-4FA4-B6C7-CACE9B87C91Cfill_el" offset="100%" stop-color="#ff6347" stop-opacity="1"/> 		</radialGradient> 	</defs> 	     <circle id="_F1E012FE-762F-4FA4-B6C7-CACE9B87C91Cbg_frame" cx="14" cy="14" r="14" stroke="#000000" fill="url(#_F1E012FE-762F-4FA4-B6C7-CACE9B87C91Cbackground) white" stroke-width="3"/> 	<text font-size="11" id="_F1E012FE-762F-4FA4-B6C7-CACE9B87C91Ctext_name" x="14" y="30" oryx:align="top center" stroke="black" stroke-width="0pt" letter-spacing="-0.01px" fill="#000000" text-anchor="middle" transform="rotate(0 14 30)" visibility="inherit" oryx:fontSize="11"/>   </g></g><g class="children" style="overflow:hidden"/><g class="edge"/></g><g class="controls"><g class="dockers"/><g class="magnets" transform="translate(485, 166)"><g pointer-events="all" display="none" transform="translate(6, 6)"><circle cx="8" cy="8" r="4" stroke="none" fill="red" fill-opacity="0.3"/></g></g></g></g></g><g class="edge"><g id="_17A71DCE-B3C8-4AF3-9D7D-06B1916590BF" bpmn2nodeid="_627E15E8-794E-45B0-8760-0C53628C4C04"><g class="stencils"><g class="me"><g pointer-events="painted" bpmn2nodeid="_965C396E-2916-4C5C-A64E-789DC603DDA7"><path id="_17A71DCE-B3C8-4AF3-9D7D-06B1916590BF_1" d="M150.6083435402103 179.29052983908136L194.1572814597897 177.31103266091864 " stroke="#000000" fill="none" stroke-width="2" stroke-linecap="round" stroke-linejoin="round" marker-start="url(#_17A71DCE-B3C8-4AF3-9D7D-06B1916590BFstart)" marker-end="url(#_17A71DCE-B3C8-4AF3-9D7D-06B1916590BFend)"/></g><text id="_17A71DCE-B3C8-4AF3-9D7D-06B1916590BFtext_name" font-size="12" x="164.6083435402103" y="165.29052983908136" oryx:edgePosition="startTop" stroke-width="0pt" letter-spacing="-0.01px" fill="#000000" text-anchor="start" transform="rotate(357.3974377975002 150.6083435402103 179.29052983908136)" visibility="inherit" oryx:fontSize="12"/></g><g class="children" style="overflow:hidden"/><g class="edge"/></g><g class="controls"><g class="dockers"/><g class="magnets"/></g></g><g id="_46B9D8A8-3F4E-4072-9EEF-2C2026BF6257" bpmn2nodeid="_EF123F49-F34D-4349-888A-3955E63BFA51"><g class="stencils"><g class="me"><g pointer-events="painted" bpmn2nodeid="_9205DA17-D211-4C17-8AD8-FA316F25FE2D"><path id="_46B9D8A8-3F4E-4072-9EEF-2C2026BF6257_1" d="M295.8431559993536 176.7532122758398L339.1568440006464 178.2467877241602 " stroke="#000000" fill="none" stroke-width="2" stroke-linecap="round" stroke-linejoin="round" marker-start="url(#_46B9D8A8-3F4E-4072-9EEF-2C2026BF6257start)" marker-end="url(#_46B9D8A8-3F4E-4072-9EEF-2C2026BF6257end)"/></g><text id="_46B9D8A8-3F4E-4072-9EEF-2C2026BF6257text_name" font-size="12" x="309.8431559993536" y="162.7532122758398" oryx:edgePosition="startTop" stroke-width="0pt" letter-spacing="-0.01px" fill="#000000" text-anchor="start" transform="rotate(1.9749340108819524 295.8431559993536 176.7532122758398)" visibility="inherit" oryx:fontSize="12"/></g><g class="children" style="overflow:hidden"/><g class="edge"/></g><g class="controls"><g class="dockers"/><g class="magnets"/></g></g><g id="_E153F025-D91A-4FB2-B02E-C50AE9329B01" bpmn2nodeid="_D232D666-2233-4B1D-ADD1-B1224A03CECE"><g class="stencils"><g class="me"><g pointer-events="painted" bpmn2nodeid="_6B21C045-644B-459E-8CC4-1AFDFDAD53DE"><path id="_E153F025-D91A-4FB2-B02E-C50AE9329B01_1" d="M440.390625 180L484.375 180 " stroke="#000000" fill="none" stroke-width="2" stroke-linecap="round" stroke-linejoin="round" marker-start="url(#_E153F025-D91A-4FB2-B02E-C50AE9329B01start)" marker-end="url(#_E153F025-D91A-4FB2-B02E-C50AE9329B01end)"/></g><text id="_E153F025-D91A-4FB2-B02E-C50AE9329B01text_name" font-size="12" x="454.390625" y="166" oryx:edgePosition="startTop" stroke-width="0pt" letter-spacing="-0.01px" fill="#000000" text-anchor="start" transform="rotate(360 440.390625 180)" visibility="inherit" oryx:fontSize="12"/></g><g class="children" style="overflow:hidden"/><g class="edge"/></g><g class="controls"><g class="dockers"/><g class="magnets"/></g></g></g><text id="_0CCD1648-20D4-4B59-BCC2-D150E807F1AE" style="stroke-width:1;fill:rgb(177,194,214);font-family:arial;font-weight:bold" font-size="12" onclick="ORYX.Plugins.CanvasTitle.openTextualAnalysis()" onmouseover="ORYX.Plugins.CanvasTitle.addToolTip('_0CCD1648-20D4-4B59-BCC2-D150E807F1AE')" transform="translate(10, 20)">GreetingsProcess v.1.0 (barcellona20180115.GreetingsProcess)</text></g></g></svg>