<svg xmlns="http://www.w3.org/2000/svg" xmlns:oryx="http://oryx-editor.org" id="_83530F5D-AA6F-4FCE-A47D-CA65DA6E1B6B" width="553" height="265" xmlns:xlink="http://www.w3.org/1999/xlink" xmlns:svg="http://www.w3.org/2000/svg"><defs><marker id="_817E1E26-9FC0-4489-BF8D-26FEAF4101B7start" refX="1" refY="5" markerUnits="userSpaceOnUse" markerWidth="17" markerHeight="11" orient="auto" fill="#000000" stroke="#000000"> 	  		<path id="_817E1E26-9FC0-4489-BF8D-26FEAF4101B7conditional" d="M 0 5 L 8 0 L 16 5 L 8 10 L 0 5" fill="white" stroke="#000000" stroke-width="1" display="none"/> 			<path id="_817E1E26-9FC0-4489-BF8D-26FEAF4101B7default" d="M 5 0 L 11 10" fill="white" stroke="#000000" stroke-width="1" display="none"/> 	  	</marker><marker id="_817E1E26-9FC0-4489-BF8D-26FEAF4101B7end" refX="15" refY="6" markerUnits="userSpaceOnUse" markerWidth="15" markerHeight="12" orient="auto" fill="#000000" stroke="#000000"> 	  		<path id="_817E1E26-9FC0-4489-BF8D-26FEAF4101B7frame2" d="M 0 1 L 15 6 L 0 11z" fill="#000000" stroke="#000000" stroke-linejoin="round" stroke-width="2"/> 	  	</marker><marker id="_B713731F-6768-4A6E-ACDE-E823F57DDEF4start" refX="1" refY="5" markerUnits="userSpaceOnUse" markerWidth="17" markerHeight="11" orient="auto" fill="#000000" stroke="#000000"> 	  		<path id="_B713731F-6768-4A6E-ACDE-E823F57DDEF4conditional" d="M 0 5 L 8 0 L 16 5 L 8 10 L 0 5" fill="white" stroke="#000000" stroke-width="1" display="none"/> 			<path id="_B713731F-6768-4A6E-ACDE-E823F57DDEF4default" d="M 5 0 L 11 10" fill="white" stroke="#000000" stroke-width="1" display="none"/> 	  	</marker><marker id="_B713731F-6768-4A6E-ACDE-E823F57DDEF4end" refX="15" refY="6" markerUnits="userSpaceOnUse" markerWidth="15" markerHeight="12" orient="auto" fill="#000000" stroke="#000000"> 	  		<path id="_B713731F-6768-4A6E-ACDE-E823F57DDEF4frame2" d="M 0 1 L 15 6 L 0 11z" fill="#000000" stroke="#000000" stroke-linejoin="round" stroke-width="2"/> 	  	</marker><marker id="_5DBAABEA-8E8B-4BD6-A532-AAE4C65262D8start" refX="1" refY="5" markerUnits="userSpaceOnUse" markerWidth="17" markerHeight="11" orient="auto" fill="#000000" stroke="#000000"> 	  		<path id="_5DBAABEA-8E8B-4BD6-A532-AAE4C65262D8conditional" d="M 0 5 L 8 0 L 16 5 L 8 10 L 0 5" fill="white" stroke="#000000" stroke-width="1" display="none"/> 			<path id="_5DBAABEA-8E8B-4BD6-A532-AAE4C65262D8default" d="M 5 0 L 11 10" fill="white" stroke="#000000" stroke-width="1" display="none"/> 	  	</marker><marker id="_5DBAABEA-8E8B-4BD6-A532-AAE4C65262D8end" refX="15" refY="6" markerUnits="userSpaceOnUse" markerWidth="15" markerHeight="12" orient="auto" fill="#000000" stroke="#000000"> 	  		<path id="_5DBAABEA-8E8B-4BD6-A532-AAE4C65262D8frame2" d="M 0 1 L 15 6 L 0 11z" fill="#000000" stroke="#000000" stroke-linejoin="round" stroke-width="2"/> 	  	</marker></defs><g stroke="none" font-family="Verdana, sans-serif" font-size-adjust="none" font-style="normal" font-variant="normal" font-weight="normal" line-heigth="normal" font-size="12"><g class="stencils" transform="translate(15, 16)"><g class="me"/><g class="children"><g id="_C00BEFBE-7ACB-4F0E-8C41-13F9C03E6BAD" bpmn2nodeid="processStartEvent"><g class="stencils" transform="translate(120, 165)"><g class="me"><g pointer-events="fill" id="_C00BEFBE-7ACB-4F0E-8C41-13F9C03E6BAD">        <defs id="_C00BEFBE-7ACB-4F0E-8C41-13F9C03E6BAD__C00BEFBE-7ACB-4F0E-8C41-13F9C03E6BAD_5"> 		<radialGradient id="_C00BEFBE-7ACB-4F0E-8C41-13F9C03E6BADbackground" cx="10%" cy="10%" r="100%" fx="10%" fy="10%"> 			<stop offset="0%" stop-color="#ffffff" stop-opacity="1" id="_C00BEFBE-7ACB-4F0E-8C41-13F9C03E6BAD__C00BEFBE-7ACB-4F0E-8C41-13F9C03E6BAD_6"/> 			<stop id="_C00BEFBE-7ACB-4F0E-8C41-13F9C03E6BADfill_el" offset="100%" stop-color="#9acd32" stop-opacity="1"/> 		</radialGradient> 	</defs> 	     <circle id="_C00BEFBE-7ACB-4F0E-8C41-13F9C03E6BADbg_frame" cx="15" cy="15" r="15" stroke="#000000" fill="url(#_C00BEFBE-7ACB-4F0E-8C41-13F9C03E6BADbackground) white" stroke-width="1" style="stroke-dasharray: 5.5, 3"/>      <circle id="_C00BEFBE-7ACB-4F0E-8C41-13F9C03E6BADframe" cx="15" cy="15" r="15" stroke="#000000" fill="none" stroke-width="1" display="inherit"/>  	<text font-size="11" id="_C00BEFBE-7ACB-4F0E-8C41-13F9C03E6BADtext_name" x="15" y="32" oryx:align="top center" stroke="black" stroke-width="0pt" letter-spacing="-0.01px" fill="#000000" text-anchor="middle" transform="rotate(0 15 32)" visibility="inherit" oryx:fontSize="11"/>   </g></g><g class="children" style="overflow:hidden"/><g class="edge"/></g><g class="controls"><g class="dockers"/><g class="magnets" transform="translate(120, 165)"><g pointer-events="all" display="none" transform="translate(7, 7)"><circle cx="8" cy="8" r="4" stroke="none" fill="red" fill-opacity="0.3"/></g></g></g></g><g id="_5DE7E739-134C-4192-89C5-C0A6279EFCED" bpmn2nodeid="_03EF8F62-8007-4D00-B89C-92EA459E45C6"><g class="stencils" transform="translate(195, 140)"><g class="me"><g pointer-events="fill" oryx:minimumSize="50 40" id="_5DE7E739-134C-4192-89C5-C0A6279EFCED">   	<defs id="_5DE7E739-134C-4192-89C5-C0A6279EFCED__5DE7E739-134C-4192-89C5-C0A6279EFCED_17"> 		<radialGradient id="_5DE7E739-134C-4192-89C5-C0A6279EFCEDbackground" cx="10%" cy="10%" r="100%" fx="10%" fy="10%"> 			<stop offset="0%" stop-color="#ffffff" stop-opacity="1" id="_5DE7E739-134C-4192-89C5-C0A6279EFCED__5DE7E739-134C-4192-89C5-C0A6279EFCED_18"/> 			<stop id="_5DE7E739-134C-4192-89C5-C0A6279EFCEDfill_el" offset="100%" stop-color="#fafad2" stop-opacity="1"/> 		</radialGradient> 		<radialGradient id="_5DE7E739-134C-4192-89C5-C0A6279EFCEDborderbackground" cx="10%" cy="10%" r="100%" fx="10%" fy="10%"> 			<stop offset="0%" stop-color="#ffffff" stop-opacity="1" id="_5DE7E739-134C-4192-89C5-C0A6279EFCED__5DE7E739-134C-4192-89C5-C0A6279EFCED_19"/> 			<stop id="_5DE7E739-134C-4192-89C5-C0A6279EFCEDfill_border" offset="100%" stop-color="#000000" stop-opacity="1" stroke="#000000"/> 		</radialGradient> 	</defs> 	 	<rect id="_5DE7E739-134C-4192-89C5-C0A6279EFCEDtext_frame" oryx:anchors="bottom top right left" x="1" y="1" width="94" height="79" rx="10" ry="10" stroke="none" stroke-width="0" fill="none"/> 	<rect id="_5DE7E739-134C-4192-89C5-C0A6279EFCEDbg_frame" oryx:resize="vertical horizontal" x="0" y="0" width="100" height="80" rx="10" ry="10" stroke="#000000" stroke-width="1" fill="url(#_5DE7E739-134C-4192-89C5-C0A6279EFCEDbackground) #ffffcc"/> 		<text font-size="12" id="_5DE7E739-134C-4192-89C5-C0A6279EFCEDtext_name" x="50" y="40" oryx:align="middle center" oryx:fittoelem="text_frame" stroke="black" text-anchor="middle" stroke-width="0pt" letter-spacing="-0.01px" fill="#000000" transform="rotate(0 50 40)" visibility="inherit" oryx:fontSize="12"><tspan x="50" y="40" dy="-1" id="ext-gen606">call DMN with a </tspan><tspan x="50" y="40" dy="11">positive</tspan></text>     <g id="_5DE7E739-134C-4192-89C5-C0A6279EFCEDmanualTask" transform="scale(0.7,0.7) translate(8,8)" display="none">     	<path oryx:anchors="top left" id="_5DE7E739-134C-4192-89C5-C0A6279EFCEDframe" style="opacity:1;fill:none;fill-opacity:1;stroke-width:1" d="M0.5,3.751l4.083-3.25c0,0,11.166,0.083,12.083,0.083s-2.417,2.917-1.5,2.917     s11.667,0,12.584,0c1.166,1.708-0.168,3.167-0.834,3.667s0.875,1.917-1,4.417c-0.75,0.25,0.75,1.875-1.333,3.333     c-1.167,0.583,0.583,1.542-1.25,2.833c-1.167,0-20.833,0.083-20.833,0.083l-2-1.333V3.751z" stroke="#000000"/> 		<path id="_5DE7E739-134C-4192-89C5-C0A6279EFCEDframe2" oryx:anchors="top left" style="opacity:1;fill:none;stroke-width:2" d="M 13.5 7 L 27 7" stroke="#000000"/> 		<path id="_5DE7E739-134C-4192-89C5-C0A6279EFCEDframe3" oryx:anchors="top left" style="opacity:1;fill:none;stroke-width:2" d="M 13.5 11 L 26 11" stroke="#000000"/> 		<path id="_5DE7E739-134C-4192-89C5-C0A6279EFCEDframe4" oryx:anchors="top left" style="opacity:1;fill:none;stroke-width:1.5" d="M 14 14.5 L 25 14.5" stroke="#000000"/> 		<path id="_5DE7E739-134C-4192-89C5-C0A6279EFCEDframe5" oryx:anchors="top left" style="opacity:1;fill:none;stroke-width:1.5" d="M 8.2 3.1 L 15 3.1" stroke="#000000"/> 	</g> 	 	<g id="_5DE7E739-134C-4192-89C5-C0A6279EFCEDbusinessRuleTask" transform="scale(0.7,0.7) translate(8,8)" display="inherit"> 		<rect id="_5DE7E739-134C-4192-89C5-C0A6279EFCEDframe6" oryx:anchors="top left" x="0" y="0" width="22" height="4" style="opacity:1;fill:#B3B1B3;fill-opacity:1;" stroke="#000000"/> 		<rect id="_5DE7E739-134C-4192-89C5-C0A6279EFCEDframe7" oryx:anchors="top left" x="0" y="4" style="opacity:1;fill:none;" width="22" height="12" stroke="#000000"/> 		<path id="_5DE7E739-134C-4192-89C5-C0A6279EFCEDframe8" oryx:anchors="top left" style="opacity:1;fill:none;" d="M 0 10 L 22 10" stroke="#000000"/> 		<path id="_5DE7E739-134C-4192-89C5-C0A6279EFCEDframe9" oryx:anchors="top left" style="opacity:1; fill:none;" d="M 7 4 L 7 16" stroke="#000000"/> 	</g> 	 	<g id="_5DE7E739-134C-4192-89C5-C0A6279EFCEDscriptTask" transform="scale(0.7,0.7) translate(8,8)" display="none"> 		<path oryx:anchors="top left" id="_5DE7E739-134C-4192-89C5-C0A6279EFCEDframe10" style="opacity:1;fill:none;" stroke="#000000" d="M6.402,0.5h14.5c0,0-5.833,2.833-5.833,5.583s4.417,6,4.417,9.167    s-4.167,5.083-4.167,5.083H0.235c0,0,5-2.667,5-5s-4.583-6.75-4.583-9.25S6.402,0.5,6.402,0.5z"/> 		<path oryx:anchors="top left" id="_5DE7E739-134C-4192-89C5-C0A6279EFCEDframe11" style="opacity:1;fill:none;stroke-width:1.5" d="M 3.5 4.5 L 13.5 4.5" stroke="#000000"/> 		<path oryx:anchors="top left" id="_5DE7E739-134C-4192-89C5-C0A6279EFCEDframe12" style="opacity:1;fill:none;stroke-width:1.5" d="M 3.8 8.5 L 13.8 8.5" stroke="#000000"/> 		<path oryx:anchors="top left" id="_5DE7E739-134C-4192-89C5-C0A6279EFCEDframe13" style="opacity:1;fill:none;stroke-width:1.5" d="M 6.3 12.5 L 16.3 12.5" stroke="#000000"/> 		<path oryx:anchors="top left" id="_5DE7E739-134C-4192-89C5-C0A6279EFCEDframe14" style="opacity:1;fill:none;stroke-width:1.5" d="M 6.5 16.5 L 16.5 16.5" stroke="#000000"/> 	</g> 	 	<g id="_5DE7E739-134C-4192-89C5-C0A6279EFCEDuserTask" transform="scale(0.7,0.7) translate(8,8)" display="none"> 		<path id="_5DE7E739-134C-4192-89C5-C0A6279EFCEDframe15" oryx:anchors="top left" style="opacity:1;fill:#F4F6F7" stroke="#000000" d="M0.585,24.167h24.083v-7.833c0,0-2.333-3.917-7.083-5.167h-9.25    c-4.417,1.333-7.833,5.75-7.833,5.75L0.585,24.167z"/> 		<path id="_5DE7E739-134C-4192-89C5-C0A6279EFCEDframe16" oryx:anchors="top left" style="opacity:1;fill:none" d="M 6 20 L 6 24" stroke="#000000"/> 		<path id="_5DE7E739-134C-4192-89C5-C0A6279EFCEDframe17" oryx:anchors="top left" style="opacity:1;fill:none" d="M 20 20 L 20 24" stroke="#000000"/> 		<circle id="_5DE7E739-134C-4192-89C5-C0A6279EFCEDframe18" oryx:anchors="top left" fill="black" cx="13.002" cy="5.916" r="5.417" stroke="#000000"/> 		<path id="_5DE7E739-134C-4192-89C5-C0A6279EFCEDframe19" oryx:anchors="top left" style="opacity:1;fill:#F0EFF0;" stroke="#000000" d="M8.043,7.083c0,0,2.814-2.426,5.376-1.807s4.624-0.693,4.624-0.693    c0.25,1.688,0.042,3.75-1.458,5.584c0,0,1.083,0.75,1.083,1.5s0.125,1.875-1,3s-5.5,1.25-6.75,0S8.668,12.834,8.668,12    s0.583-1.25,1.25-1.917C8.835,9.5,7.419,7.708,8.043,7.083z"/> 	</g> 	 	<g id="_5DE7E739-134C-4192-89C5-C0A6279EFCEDserviceTask" transform="scale(0.7,0.7) translate(8,8)" display="none"> 		<polygon oryx:anchors="top left" id="_5DE7E739-134C-4192-89C5-C0A6279EFCEDframe20" style="opacity:1;fill:#ffffff" stroke="#000000" points="15.392,5.064 17.954,2.502 20.347,4.895 17.786,7.455     18.729,9.732 22.353,9.732 22.353,13.115 18.731,13.115 17.788,15.392 20.351,17.955 17.958,20.347 15.397,17.786 13.12,18.729     13.12,22.353 9.737,22.353 9.737,18.731 7.46,17.788 4.897,20.35 2.506,17.958 5.066,15.397 4.124,13.12 0.5,13.12 0.5,9.737     4.121,9.737 5.065,7.461 2.503,4.898 4.895,2.506 7.455,5.066 9.732,4.125 9.732,0.5 13.116,0.5 13.116,4.121 "/> 		<circle oryx:anchors="top left" id="_5DE7E739-134C-4192-89C5-C0A6279EFCEDframe21" style="opacity:1;fill:none" stroke="#000000" cx="11.427" cy="11.426" r="3.714"/> 		<polygon oryx:anchors="top left" id="_5DE7E739-134C-4192-89C5-C0A6279EFCEDframe22" style="opacity:1;fill:#ffffff" stroke="#000000" points="21.392,11.064 23.954,8.502 26.347,10.895 23.786,13.455     24.729,15.732 28.353,15.732 28.353,19.115 24.731,19.115 23.788,21.392 26.351,23.955 23.958,26.347 21.397,23.786 19.12,24.729     19.12,28.353 15.737,28.353 15.737,24.731 13.46,23.788 10.897,26.35 8.506,23.958 11.066,21.397 10.124,19.12 6.5,19.12     6.5,15.737 10.121,15.737 11.065,13.461 8.503,10.898 10.895,8.506 13.455,11.066 15.732,10.125 15.732,6.5 19.116,6.5     19.116,10.121 "/> 		<circle oryx:anchors="top left" id="_5DE7E739-134C-4192-89C5-C0A6279EFCEDframe23" style="opacity:1;fill:none;" stroke="#000000" cx="17.427" cy="17.426" r="3.714"/> 	</g> 	 	<g id="_5DE7E739-134C-4192-89C5-C0A6279EFCEDsendTask" display="none"> 		<path id="_5DE7E739-134C-4192-89C5-C0A6279EFCEDstframe24" oryx:anchors="left top" stroke="#FFFFFF" fill="black" stroke-width="1" d="M8,11 L8,21 L24,21 L24,11 L16,17z"/> 		<path id="_5DE7E739-134C-4192-89C5-C0A6279EFCEDstframe25" oryx:anchors="left top" stroke="#FFFFFF" fill="black" stroke-width="1" d="M7,10 L16,17 L25 10z"/> 	</g> 	 	<g id="_5DE7E739-134C-4192-89C5-C0A6279EFCEDreceiveTask" display="none"> 		<path id="_5DE7E739-134C-4192-89C5-C0A6279EFCEDframe26" oryx:anchors="left top" stroke="#000000" fill="none" stroke-width="1" d="M8,11 L8,21 L24,21 L24,11z M8,11 L16,17 L24,11"/> 	</g> 	 	<g id="_5DE7E739-134C-4192-89C5-C0A6279EFCEDnone" display="inherit"/>  	<g id="_5DE7E739-134C-4192-89C5-C0A6279EFCEDsequential" display="none">         <path oryx:anchors="bottom" fill="none" stroke="#000000" stroke-width="2" d="M46,76h10M46,72h10 M46,68h10" id="_5DE7E739-134C-4192-89C5-C0A6279EFCED__5DE7E739-134C-4192-89C5-C0A6279EFCED_20"/>     </g>   </g></g><g class="children" style="overflow:hidden"/><g class="edge"/></g><g class="controls"><g class="dockers"/><g class="magnets" transform="translate(195, 140)"><g pointer-events="all" display="none" transform="translate(-7, 12)"><circle cx="8" cy="8" r="4" stroke="none" fill="red" fill-opacity="0.3"/></g><g pointer-events="all" display="none" transform="translate(-7, 32)"><circle cx="8" cy="8" r="4" stroke="none" fill="red" fill-opacity="0.3"/></g><g pointer-events="all" display="none" transform="translate(-7, 52)"><circle cx="8" cy="8" r="4" stroke="none" fill="red" fill-opacity="0.3"/></g><g pointer-events="all" display="none" transform="translate(17, 71)"><circle cx="8" cy="8" r="4" stroke="none" fill="red" fill-opacity="0.3"/></g><g pointer-events="all" display="none" transform="translate(42, 71)"><circle cx="8" cy="8" r="4" stroke="none" fill="red" fill-opacity="0.3"/></g><g pointer-events="all" display="none" transform="translate(67, 71)"><circle cx="8" cy="8" r="4" stroke="none" fill="red" fill-opacity="0.3"/></g><g pointer-events="all" display="none" transform="translate(91, 12)"><circle cx="8" cy="8" r="4" stroke="none" fill="red" fill-opacity="0.3"/></g><g pointer-events="all" display="none" transform="translate(91, 32)"><circle cx="8" cy="8" r="4" stroke="none" fill="red" fill-opacity="0.3"/></g><g pointer-events="all" display="none" transform="translate(91, 52)"><circle cx="8" cy="8" r="4" stroke="none" fill="red" fill-opacity="0.3"/></g><g pointer-events="all" display="none" transform="translate(17, -7)"><circle cx="8" cy="8" r="4" stroke="none" fill="red" fill-opacity="0.3"/></g><g pointer-events="all" display="none" transform="translate(42, -7)"><circle cx="8" cy="8" r="4" stroke="none" fill="red" fill-opacity="0.3"/></g><g pointer-events="all" display="none" transform="translate(67, -7)"><circle cx="8" cy="8" r="4" stroke="none" fill="red" fill-opacity="0.3"/></g><g pointer-events="all" display="none" transform="translate(42, 32)"><circle cx="8" cy="8" r="4" stroke="none" fill="red" fill-opacity="0.3"/></g></g></g></g><g id="_D3132629-4A92-44BE-85FF-232D8BD976AA" bpmn2nodeid="_9457A21B-9050-4D0C-8770-87C7D4BACAEB"><g class="stencils" transform="translate(340, 140)"><g class="me"><g pointer-events="fill" oryx:minimumSize="50 40" id="_D3132629-4A92-44BE-85FF-232D8BD976AA">   	<defs id="_D3132629-4A92-44BE-85FF-232D8BD976AA__D3132629-4A92-44BE-85FF-232D8BD976AA_17"> 		<radialGradient id="_D3132629-4A92-44BE-85FF-232D8BD976AAbackground" cx="10%" cy="10%" r="100%" fx="10%" fy="10%"> 			<stop offset="0%" stop-color="#ffffff" stop-opacity="1" id="_D3132629-4A92-44BE-85FF-232D8BD976AA__D3132629-4A92-44BE-85FF-232D8BD976AA_18"/> 			<stop id="_D3132629-4A92-44BE-85FF-232D8BD976AAfill_el" offset="100%" stop-color="#fafad2" stop-opacity="1"/> 		</radialGradient> 		<radialGradient id="_D3132629-4A92-44BE-85FF-232D8BD976AAborderbackground" cx="10%" cy="10%" r="100%" fx="10%" fy="10%"> 			<stop offset="0%" stop-color="#ffffff" stop-opacity="1" id="_D3132629-4A92-44BE-85FF-232D8BD976AA__D3132629-4A92-44BE-85FF-232D8BD976AA_19"/> 			<stop id="_D3132629-4A92-44BE-85FF-232D8BD976AAfill_border" offset="100%" stop-color="#000000" stop-opacity="1" stroke="#000000"/> 		</radialGradient> 	</defs> 	 	<rect id="_D3132629-4A92-44BE-85FF-232D8BD976AAtext_frame" oryx:anchors="bottom top right left" x="1" y="1" width="94" height="79" rx="10" ry="10" stroke="none" stroke-width="0" fill="none"/> 	<rect id="_D3132629-4A92-44BE-85FF-232D8BD976AAbg_frame" oryx:resize="vertical horizontal" x="0" y="0" width="100" height="80" rx="10" ry="10" stroke="#000000" stroke-width="1" fill="url(#_D3132629-4A92-44BE-85FF-232D8BD976AAbackground) #ffffcc"/> 		<text font-size="12" id="_D3132629-4A92-44BE-85FF-232D8BD976AAtext_name" x="50" y="40" oryx:align="middle center" oryx:fittoelem="text_frame" stroke="black" text-anchor="middle" stroke-width="0pt" letter-spacing="-0.01px" fill="#000000" transform="rotate(0 50 40)" visibility="inherit" oryx:fontSize="12"><tspan x="50" y="40" dy="-7">printout </tspan><tspan x="50" y="40" dy="5">myProcessVari</tspan><tspan x="50" y="40" dy="17">able</tspan></text>     <g id="_D3132629-4A92-44BE-85FF-232D8BD976AAmanualTask" transform="scale(0.7,0.7) translate(8,8)" display="none">     	<path oryx:anchors="top left" id="_D3132629-4A92-44BE-85FF-232D8BD976AAframe" style="opacity:1;fill:none;fill-opacity:1;stroke-width:1" d="M0.5,3.751l4.083-3.25c0,0,11.166,0.083,12.083,0.083s-2.417,2.917-1.5,2.917     s11.667,0,12.584,0c1.166,1.708-0.168,3.167-0.834,3.667s0.875,1.917-1,4.417c-0.75,0.25,0.75,1.875-1.333,3.333     c-1.167,0.583,0.583,1.542-1.25,2.833c-1.167,0-20.833,0.083-20.833,0.083l-2-1.333V3.751z" stroke="#000000"/> 		<path id="_D3132629-4A92-44BE-85FF-232D8BD976AAframe2" oryx:anchors="top left" style="opacity:1;fill:none;stroke-width:2" d="M 13.5 7 L 27 7" stroke="#000000"/> 		<path id="_D3132629-4A92-44BE-85FF-232D8BD976AAframe3" oryx:anchors="top left" style="opacity:1;fill:none;stroke-width:2" d="M 13.5 11 L 26 11" stroke="#000000"/> 		<path id="_D3132629-4A92-44BE-85FF-232D8BD976AAframe4" oryx:anchors="top left" style="opacity:1;fill:none;stroke-width:1.5" d="M 14 14.5 L 25 14.5" stroke="#000000"/> 		<path id="_D3132629-4A92-44BE-85FF-232D8BD976AAframe5" oryx:anchors="top left" style="opacity:1;fill:none;stroke-width:1.5" d="M 8.2 3.1 L 15 3.1" stroke="#000000"/> 	</g> 	 	<g id="_D3132629-4A92-44BE-85FF-232D8BD976AAbusinessRuleTask" transform="scale(0.7,0.7) translate(8,8)" display="none"> 		<rect id="_D3132629-4A92-44BE-85FF-232D8BD976AAframe6" oryx:anchors="top left" x="0" y="0" width="22" height="4" style="opacity:1;fill:#B3B1B3;fill-opacity:1;" stroke="#000000"/> 		<rect id="_D3132629-4A92-44BE-85FF-232D8BD976AAframe7" oryx:anchors="top left" x="0" y="4" style="opacity:1;fill:none;" width="22" height="12" stroke="#000000"/> 		<path id="_D3132629-4A92-44BE-85FF-232D8BD976AAframe8" oryx:anchors="top left" style="opacity:1;fill:none;" d="M 0 10 L 22 10" stroke="#000000"/> 		<path id="_D3132629-4A92-44BE-85FF-232D8BD976AAframe9" oryx:anchors="top left" style="opacity:1; fill:none;" d="M 7 4 L 7 16" stroke="#000000"/> 	</g> 	 	<g id="_D3132629-4A92-44BE-85FF-232D8BD976AAscriptTask" transform="scale(0.7,0.7) translate(8,8)" display="inherit"> 		<path oryx:anchors="top left" id="_D3132629-4A92-44BE-85FF-232D8BD976AAframe10" style="opacity:1;fill:none;" stroke="#000000" d="M6.402,0.5h14.5c0,0-5.833,2.833-5.833,5.583s4.417,6,4.417,9.167    s-4.167,5.083-4.167,5.083H0.235c0,0,5-2.667,5-5s-4.583-6.75-4.583-9.25S6.402,0.5,6.402,0.5z"/> 		<path oryx:anchors="top left" id="_D3132629-4A92-44BE-85FF-232D8BD976AAframe11" style="opacity:1;fill:none;stroke-width:1.5" d="M 3.5 4.5 L 13.5 4.5" stroke="#000000"/> 		<path oryx:anchors="top left" id="_D3132629-4A92-44BE-85FF-232D8BD976AAframe12" style="opacity:1;fill:none;stroke-width:1.5" d="M 3.8 8.5 L 13.8 8.5" stroke="#000000"/> 		<path oryx:anchors="top left" id="_D3132629-4A92-44BE-85FF-232D8BD976AAframe13" style="opacity:1;fill:none;stroke-width:1.5" d="M 6.3 12.5 L 16.3 12.5" stroke="#000000"/> 		<path oryx:anchors="top left" id="_D3132629-4A92-44BE-85FF-232D8BD976AAframe14" style="opacity:1;fill:none;stroke-width:1.5" d="M 6.5 16.5 L 16.5 16.5" stroke="#000000"/> 	</g> 	 	<g id="_D3132629-4A92-44BE-85FF-232D8BD976AAuserTask" transform="scale(0.7,0.7) translate(8,8)" display="none"> 		<path id="_D3132629-4A92-44BE-85FF-232D8BD976AAframe15" oryx:anchors="top left" style="opacity:1;fill:#F4F6F7" stroke="#000000" d="M0.585,24.167h24.083v-7.833c0,0-2.333-3.917-7.083-5.167h-9.25    c-4.417,1.333-7.833,5.75-7.833,5.75L0.585,24.167z"/> 		<path id="_D3132629-4A92-44BE-85FF-232D8BD976AAframe16" oryx:anchors="top left" style="opacity:1;fill:none" d="M 6 20 L 6 24" stroke="#000000"/> 		<path id="_D3132629-4A92-44BE-85FF-232D8BD976AAframe17" oryx:anchors="top left" style="opacity:1;fill:none" d="M 20 20 L 20 24" stroke="#000000"/> 		<circle id="_D3132629-4A92-44BE-85FF-232D8BD976AAframe18" oryx:anchors="top left" fill="black" cx="13.002" cy="5.916" r="5.417" stroke="#000000"/> 		<path id="_D3132629-4A92-44BE-85FF-232D8BD976AAframe19" oryx:anchors="top left" style="opacity:1;fill:#F0EFF0;" stroke="#000000" d="M8.043,7.083c0,0,2.814-2.426,5.376-1.807s4.624-0.693,4.624-0.693    c0.25,1.688,0.042,3.75-1.458,5.584c0,0,1.083,0.75,1.083,1.5s0.125,1.875-1,3s-5.5,1.25-6.75,0S8.668,12.834,8.668,12    s0.583-1.25,1.25-1.917C8.835,9.5,7.419,7.708,8.043,7.083z"/> 	</g> 	 	<g id="_D3132629-4A92-44BE-85FF-232D8BD976AAserviceTask" transform="scale(0.7,0.7) translate(8,8)" display="none"> 		<polygon oryx:anchors="top left" id="_D3132629-4A92-44BE-85FF-232D8BD976AAframe20" style="opacity:1;fill:#ffffff" stroke="#000000" points="15.392,5.064 17.954,2.502 20.347,4.895 17.786,7.455     18.729,9.732 22.353,9.732 22.353,13.115 18.731,13.115 17.788,15.392 20.351,17.955 17.958,20.347 15.397,17.786 13.12,18.729     13.12,22.353 9.737,22.353 9.737,18.731 7.46,17.788 4.897,20.35 2.506,17.958 5.066,15.397 4.124,13.12 0.5,13.12 0.5,9.737     4.121,9.737 5.065,7.461 2.503,4.898 4.895,2.506 7.455,5.066 9.732,4.125 9.732,0.5 13.116,0.5 13.116,4.121 "/> 		<circle oryx:anchors="top left" id="_D3132629-4A92-44BE-85FF-232D8BD976AAframe21" style="opacity:1;fill:none" stroke="#000000" cx="11.427" cy="11.426" r="3.714"/> 		<polygon oryx:anchors="top left" id="_D3132629-4A92-44BE-85FF-232D8BD976AAframe22" style="opacity:1;fill:#ffffff" stroke="#000000" points="21.392,11.064 23.954,8.502 26.347,10.895 23.786,13.455     24.729,15.732 28.353,15.732 28.353,19.115 24.731,19.115 23.788,21.392 26.351,23.955 23.958,26.347 21.397,23.786 19.12,24.729     19.12,28.353 15.737,28.353 15.737,24.731 13.46,23.788 10.897,26.35 8.506,23.958 11.066,21.397 10.124,19.12 6.5,19.12     6.5,15.737 10.121,15.737 11.065,13.461 8.503,10.898 10.895,8.506 13.455,11.066 15.732,10.125 15.732,6.5 19.116,6.5     19.116,10.121 "/> 		<circle oryx:anchors="top left" id="_D3132629-4A92-44BE-85FF-232D8BD976AAframe23" style="opacity:1;fill:none;" stroke="#000000" cx="17.427" cy="17.426" r="3.714"/> 	</g> 	 	<g id="_D3132629-4A92-44BE-85FF-232D8BD976AAsendTask" display="none"> 		<path id="_D3132629-4A92-44BE-85FF-232D8BD976AAstframe24" oryx:anchors="left top" stroke="#FFFFFF" fill="black" stroke-width="1" d="M8,11 L8,21 L24,21 L24,11 L16,17z"/> 		<path id="_D3132629-4A92-44BE-85FF-232D8BD976AAstframe25" oryx:anchors="left top" stroke="#FFFFFF" fill="black" stroke-width="1" d="M7,10 L16,17 L25 10z"/> 	</g> 	 	<g id="_D3132629-4A92-44BE-85FF-232D8BD976AAreceiveTask" display="none"> 		<path id="_D3132629-4A92-44BE-85FF-232D8BD976AAframe26" oryx:anchors="left top" stroke="#000000" fill="none" stroke-width="1" d="M8,11 L8,21 L24,21 L24,11z M8,11 L16,17 L24,11"/> 	</g> 	 	<g id="_D3132629-4A92-44BE-85FF-232D8BD976AAnone" display="inherit"/>  	<g id="_D3132629-4A92-44BE-85FF-232D8BD976AAsequential" display="none">         <path oryx:anchors="bottom" fill="none" stroke="#000000" stroke-width="2" d="M46,76h10M46,72h10 M46,68h10" id="_D3132629-4A92-44BE-85FF-232D8BD976AA__D3132629-4A92-44BE-85FF-232D8BD976AA_20"/>     </g>   </g></g><g class="children" style="overflow:hidden"/><g class="edge"/></g><g class="controls"><g class="dockers"/><g class="magnets" transform="translate(340, 140)"><g pointer-events="all" display="none" transform="translate(-7, 12)"><circle cx="8" cy="8" r="4" stroke="none" fill="red" fill-opacity="0.3"/></g><g pointer-events="all" display="none" transform="translate(-7, 32)"><circle cx="8" cy="8" r="4" stroke="none" fill="red" fill-opacity="0.3"/></g><g pointer-events="all" display="none" transform="translate(-7, 52)"><circle cx="8" cy="8" r="4" stroke="none" fill="red" fill-opacity="0.3"/></g><g pointer-events="all" display="none" transform="translate(17, 71)"><circle cx="8" cy="8" r="4" stroke="none" fill="red" fill-opacity="0.3"/></g><g pointer-events="all" display="none" transform="translate(42, 71)"><circle cx="8" cy="8" r="4" stroke="none" fill="red" fill-opacity="0.3"/></g><g pointer-events="all" display="none" transform="translate(67, 71)"><circle cx="8" cy="8" r="4" stroke="none" fill="red" fill-opacity="0.3"/></g><g pointer-events="all" display="none" transform="translate(91, 12)"><circle cx="8" cy="8" r="4" stroke="none" fill="red" fill-opacity="0.3"/></g><g pointer-events="all" display="none" transform="translate(91, 32)"><circle cx="8" cy="8" r="4" stroke="none" fill="red" fill-opacity="0.3"/></g><g pointer-events="all" display="none" transform="translate(91, 52)"><circle cx="8" cy="8" r="4" stroke="none" fill="red" fill-opacity="0.3"/></g><g pointer-events="all" display="none" transform="translate(17, -7)"><circle cx="8" cy="8" r="4" stroke="none" fill="red" fill-opacity="0.3"/></g><g pointer-events="all" display="none" transform="translate(42, -7)"><circle cx="8" cy="8" r="4" stroke="none" fill="red" fill-opacity="0.3"/></g><g pointer-events="all" display="none" transform="translate(67, -7)"><circle cx="8" cy="8" r="4" stroke="none" fill="red" fill-opacity="0.3"/></g><g pointer-events="all" display="none" transform="translate(42, 32)"><circle cx="8" cy="8" r="4" stroke="none" fill="red" fill-opacity="0.3"/></g></g></g></g><g id="_3B2CC225-2001-4242-93A4-F04696FC167C" bpmn2nodeid="_B3A5767F-D6B4-4BD6-93C7-03B99652AC3D"><g class="stencils" transform="translate(485, 166)"><g class="me"><g pointer-events="fill" id="_3B2CC225-2001-4242-93A4-F04696FC167C">      <defs id="_3B2CC225-2001-4242-93A4-F04696FC167C__3B2CC225-2001-4242-93A4-F04696FC167C_5"> 		<radialGradient id="_3B2CC225-2001-4242-93A4-F04696FC167Cbackground" cx="10%" cy="10%" r="100%" fx="10%" fy="10%"> 			<stop offset="0%" stop-color="#ffffff" stop-opacity="1" id="_3B2CC225-2001-4242-93A4-F04696FC167C__3B2CC225-2001-4242-93A4-F04696FC167C_6"/> 			<stop id="_3B2CC225-2001-4242-93A4-F04696FC167Cfill_el" offset="100%" stop-color="#ff6347" stop-opacity="1"/> 		</radialGradient> 	</defs> 	     <circle id="_3B2CC225-2001-4242-93A4-F04696FC167Cbg_frame" cx="14" cy="14" r="14" stroke="#000000" fill="url(#_3B2CC225-2001-4242-93A4-F04696FC167Cbackground) white" stroke-width="3"/> 	<text font-size="11" id="_3B2CC225-2001-4242-93A4-F04696FC167Ctext_name" x="14" y="30" oryx:align="top center" stroke="black" stroke-width="0pt" letter-spacing="-0.01px" fill="#000000" text-anchor="middle" transform="rotate(0 14 30)" visibility="inherit" oryx:fontSize="11"/>   </g></g><g class="children" style="overflow:hidden"/><g class="edge"/></g><g class="controls"><g class="dockers"/><g class="magnets" transform="translate(485, 166)"><g pointer-events="all" display="none" transform="translate(6, 6)"><circle cx="8" cy="8" r="4" stroke="none" fill="red" fill-opacity="0.3"/></g></g></g></g></g><g class="edge"><g id="_817E1E26-9FC0-4489-BF8D-26FEAF4101B7" bpmn2nodeid="_F44BC860-88A0-4DE6-BF8E-B7F34458D679"><g class="stencils"><g class="me"><g pointer-events="painted" bpmn2nodeid="_155657E0-C1BE-488D-A20E-212BEDF13351"><path id="_817E1E26-9FC0-4489-BF8D-26FEAF4101B7_1" d="M150.609375 180L194.15625 180 " stroke="#000000" fill="none" stroke-width="2" stroke-linecap="round" stroke-linejoin="round" marker-start="url(#_817E1E26-9FC0-4489-BF8D-26FEAF4101B7start)" marker-end="url(#_817E1E26-9FC0-4489-BF8D-26FEAF4101B7end)"/></g><text id="_817E1E26-9FC0-4489-BF8D-26FEAF4101B7text_name" font-size="12" x="164.609375" y="166" oryx:edgePosition="startTop" stroke-width="0pt" letter-spacing="-0.01px" fill="#000000" text-anchor="start" transform="rotate(360 150.609375 180)" visibility="inherit" oryx:fontSize="12"/></g><g class="children" style="overflow:hidden"/><g class="edge"/></g><g class="controls"><g class="dockers"/><g class="magnets"/></g></g><g id="_B713731F-6768-4A6E-ACDE-E823F57DDEF4" bpmn2nodeid="_BD867440-43B1-4250-B7A2-C00FA012C3E5"><g class="stencils"><g class="me"><g pointer-events="painted" bpmn2nodeid="_503F140A-6C17-407E-9930-D470ECA247B6"><path id="_B713731F-6768-4A6E-ACDE-E823F57DDEF4_1" d="M295.84375 180L339.15625 180 " stroke="#000000" fill="none" stroke-width="2" stroke-linecap="round" stroke-linejoin="round" marker-start="url(#_B713731F-6768-4A6E-ACDE-E823F57DDEF4start)" marker-end="url(#_B713731F-6768-4A6E-ACDE-E823F57DDEF4end)"/></g><text id="_B713731F-6768-4A6E-ACDE-E823F57DDEF4text_name" font-size="12" x="309.84375" y="166" oryx:edgePosition="startTop" stroke-width="0pt" letter-spacing="-0.01px" fill="#000000" text-anchor="start" transform="rotate(360 295.84375 180)" visibility="inherit" oryx:fontSize="12"/></g><g class="children" style="overflow:hidden"/><g class="edge"/></g><g class="controls"><g class="dockers"/><g class="magnets"/></g></g><g id="_5DBAABEA-8E8B-4BD6-A532-AAE4C65262D8" bpmn2nodeid="_021DD051-45DB-443E-A563-148F423DBAC3"><g class="stencils"><g class="me"><g pointer-events="painted" bpmn2nodeid="_802AF96F-3FC1-4B39-9AB3-6952F18B346D"><path id="_5DBAABEA-8E8B-4BD6-A532-AAE4C65262D8_1" d="M440.390625 180L484.375 180 " stroke="#000000" fill="none" stroke-width="2" stroke-linecap="round" stroke-linejoin="round" marker-start="url(#_5DBAABEA-8E8B-4BD6-A532-AAE4C65262D8start)" marker-end="url(#_5DBAABEA-8E8B-4BD6-A532-AAE4C65262D8end)"/></g><text id="_5DBAABEA-8E8B-4BD6-A532-AAE4C65262D8text_name" font-size="12" x="454.390625" y="166" oryx:edgePosition="startTop" stroke-width="0pt" letter-spacing="-0.01px" fill="#000000" text-anchor="start" transform="rotate(360 440.390625 180)" visibility="inherit" oryx:fontSize="12"/></g><g class="children" style="overflow:hidden"/><g class="edge"/></g><g class="controls"><g class="dockers"/><g class="magnets"/></g></g></g><text id="_9015D542-A934-4F20-9443-AC3ED503CDFA" style="stroke-width:1;fill:rgb(177,194,214);font-family:arial;font-weight:bold" font-size="12" onclick="ORYX.Plugins.CanvasTitle.openTextualAnalysis()" onmouseover="ORYX.Plugins.CanvasTitle.addToolTip('_9015D542-A934-4F20-9443-AC3ED503CDFA')" transform="translate(10, 20)">PONProcess v.1.0 (barcellona20180115.PONProcess)</text></g></g></svg>