<svg xmlns="http://www.w3.org/2000/svg" xmlns:oryx="http://oryx-editor.org" id="_DCEBB698-0080-460E-8B05-230980FCE4CC" width="553" height="421" xmlns:xlink="http://www.w3.org/1999/xlink" xmlns:svg="http://www.w3.org/2000/svg"><defs><marker id="_CBAFA8DA-E7D6-4BBA-B25D-E6B103D8C44Fstart" refX="1" refY="5" markerUnits="userSpaceOnUse" markerWidth="17" markerHeight="11" orient="auto" fill="#000000" stroke="#000000"> 	  		<path id="_CBAFA8DA-E7D6-4BBA-B25D-E6B103D8C44Fconditional" d="M 0 5 L 8 0 L 16 5 L 8 10 L 0 5" fill="white" stroke="#000000" stroke-width="1" display="none"/> 			<path id="_CBAFA8DA-E7D6-4BBA-B25D-E6B103D8C44Fdefault" d="M 5 0 L 11 10" fill="white" stroke="#000000" stroke-width="1" display="none"/> 	  	</marker><marker id="_CBAFA8DA-E7D6-4BBA-B25D-E6B103D8C44Fend" refX="15" refY="6" markerUnits="userSpaceOnUse" markerWidth="15" markerHeight="12" orient="auto" fill="#000000" stroke="#000000"> 	  		<path id="_CBAFA8DA-E7D6-4BBA-B25D-E6B103D8C44Fframe2" d="M 0 1 L 15 6 L 0 11z" fill="#000000" stroke="#000000" stroke-linejoin="round" stroke-width="2"/> 	  	</marker><marker id="_8F59BBD0-87A7-4B9D-B8B4-0E4C3227F277start" refX="1" refY="5" markerUnits="userSpaceOnUse" markerWidth="17" markerHeight="11" orient="auto" fill="#000000" stroke="#000000"> 	  		<path id="_8F59BBD0-87A7-4B9D-B8B4-0E4C3227F277conditional" d="M 0 5 L 8 0 L 16 5 L 8 10 L 0 5" fill="white" stroke="#000000" stroke-width="1" display="none"/> 			<path id="_8F59BBD0-87A7-4B9D-B8B4-0E4C3227F277default" d="M 5 0 L 11 10" fill="white" stroke="#000000" stroke-width="1" display="none"/> 	  	</marker><marker id="_8F59BBD0-87A7-4B9D-B8B4-0E4C3227F277end" refX="15" refY="6" markerUnits="userSpaceOnUse" markerWidth="15" markerHeight="12" orient="auto" fill="#000000" stroke="#000000"> 	  		<path id="_8F59BBD0-87A7-4B9D-B8B4-0E4C3227F277frame2" d="M 0 1 L 15 6 L 0 11z" fill="#000000" stroke="#000000" stroke-linejoin="round" stroke-width="2"/> 	  	</marker><marker id="_50483BA4-36F1-406C-A515-1A2A8465E00Cstart" refX="1" refY="5" markerUnits="userSpaceOnUse" markerWidth="17" markerHeight="11" orient="auto" fill="#000000" stroke="#000000"> 	  		<path id="_50483BA4-36F1-406C-A515-1A2A8465E00Cconditional" d="M 0 5 L 8 0 L 16 5 L 8 10 L 0 5" fill="white" stroke="#000000" stroke-width="1" display="none"/> 			<path id="_50483BA4-36F1-406C-A515-1A2A8465E00Cdefault" d="M 5 0 L 11 10" fill="white" stroke="#000000" stroke-width="1" display="none"/> 	  	</marker><marker id="_50483BA4-36F1-406C-A515-1A2A8465E00Cend" refX="15" refY="6" markerUnits="userSpaceOnUse" markerWidth="15" markerHeight="12" orient="auto" fill="#000000" stroke="#000000"> 	  		<path id="_50483BA4-36F1-406C-A515-1A2A8465E00Cframe2" d="M 0 1 L 15 6 L 0 11z" fill="#000000" stroke="#000000" stroke-linejoin="round" stroke-width="2"/> 	  	</marker><marker id="_B41399E1-3C9A-46FB-B031-12BFEF8BFC5Fstart" refX="1" refY="5" markerUnits="userSpaceOnUse" markerWidth="17" markerHeight="11" orient="auto" fill="#000000" stroke="#000000"> 	  		<path id="_B41399E1-3C9A-46FB-B031-12BFEF8BFC5Fconditional" d="M 0 5 L 8 0 L 16 5 L 8 10 L 0 5" fill="white" stroke="#000000" stroke-width="1" display="none"/> 			<path id="_B41399E1-3C9A-46FB-B031-12BFEF8BFC5Fdefault" d="M 5 0 L 11 10" fill="white" stroke="#000000" stroke-width="1" display="none"/> 	  	</marker><marker id="_B41399E1-3C9A-46FB-B031-12BFEF8BFC5Fend" refX="15" refY="6" markerUnits="userSpaceOnUse" markerWidth="15" markerHeight="12" orient="auto" fill="#000000" stroke="#000000"> 	  		<path id="_B41399E1-3C9A-46FB-B031-12BFEF8BFC5Fframe2" d="M 0 1 L 15 6 L 0 11z" fill="#000000" stroke="#000000" stroke-linejoin="round" stroke-width="2"/> 	  	</marker></defs><g stroke="none" font-family="Verdana, sans-serif" font-size-adjust="none" font-style="normal" font-variant="normal" font-weight="normal" line-heigth="normal" font-size="12"><g class="stencils" transform="translate(15, 16)"><g class="me"/><g class="children"><g id="_D9E497B7-B598-4C9E-8B5E-F8B8E927BACF" bpmn2nodeid="processStartEvent"><g class="stencils" transform="translate(120, 165)"><g class="me"><g pointer-events="fill" id="_D9E497B7-B598-4C9E-8B5E-F8B8E927BACF">        <defs id="_D9E497B7-B598-4C9E-8B5E-F8B8E927BACF__D9E497B7-B598-4C9E-8B5E-F8B8E927BACF_5"> 		<radialGradient id="_D9E497B7-B598-4C9E-8B5E-F8B8E927BACFbackground" cx="10%" cy="10%" r="100%" fx="10%" fy="10%"> 			<stop offset="0%" stop-color="#ffffff" stop-opacity="1" id="_D9E497B7-B598-4C9E-8B5E-F8B8E927BACF__D9E497B7-B598-4C9E-8B5E-F8B8E927BACF_6"/> 			<stop id="_D9E497B7-B598-4C9E-8B5E-F8B8E927BACFfill_el" offset="100%" stop-color="#9acd32" stop-opacity="1"/> 		</radialGradient> 	</defs> 	     <circle id="_D9E497B7-B598-4C9E-8B5E-F8B8E927BACFbg_frame" cx="15" cy="15" r="15" stroke="#000000" fill="url(#_D9E497B7-B598-4C9E-8B5E-F8B8E927BACFbackground) white" stroke-width="1" style="stroke-dasharray: 5.5, 3"/>      <circle id="_D9E497B7-B598-4C9E-8B5E-F8B8E927BACFframe" cx="15" cy="15" r="15" stroke="#000000" fill="none" stroke-width="1" display="inherit"/>  	<text font-size="11" id="_D9E497B7-B598-4C9E-8B5E-F8B8E927BACFtext_name" x="15" y="32" oryx:align="top center" stroke="black" stroke-width="0pt" letter-spacing="-0.01px" fill="#000000" text-anchor="middle" transform="rotate(0 15 32)" visibility="inherit" oryx:fontSize="11"/>   </g></g><g class="children" style="overflow:hidden"/><g class="edge"/></g><g class="controls"><g class="dockers"/><g class="magnets" transform="translate(120, 165)"><g pointer-events="all" display="none" transform="translate(7, 7)"><circle cx="8" cy="8" r="4" stroke="none" fill="red" fill-opacity="0.3"/></g></g></g></g><g id="_BF7076E8-0AFA-4924-AF01-F17A36820325" bpmn2nodeid="_03EF8F62-8007-4D00-B89C-92EA459E45C6"><g class="stencils" transform="translate(195, 140)"><g class="me"><g pointer-events="fill" oryx:minimumSize="50 40" id="_BF7076E8-0AFA-4924-AF01-F17A36820325">   	<defs id="_BF7076E8-0AFA-4924-AF01-F17A36820325__BF7076E8-0AFA-4924-AF01-F17A36820325_17"> 		<radialGradient id="_BF7076E8-0AFA-4924-AF01-F17A36820325background" cx="10%" cy="10%" r="100%" fx="10%" fy="10%"> 			<stop offset="0%" stop-color="#ffffff" stop-opacity="1" id="_BF7076E8-0AFA-4924-AF01-F17A36820325__BF7076E8-0AFA-4924-AF01-F17A36820325_18"/> 			<stop id="_BF7076E8-0AFA-4924-AF01-F17A36820325fill_el" offset="100%" stop-color="#fafad2" stop-opacity="1"/> 		</radialGradient> 		<radialGradient id="_BF7076E8-0AFA-4924-AF01-F17A36820325borderbackground" cx="10%" cy="10%" r="100%" fx="10%" fy="10%"> 			<stop offset="0%" stop-color="#ffffff" stop-opacity="1" id="_BF7076E8-0AFA-4924-AF01-F17A36820325__BF7076E8-0AFA-4924-AF01-F17A36820325_19"/> 			<stop id="_BF7076E8-0AFA-4924-AF01-F17A36820325fill_border" offset="100%" stop-color="#000000" stop-opacity="1" stroke="#000000"/> 		</radialGradient> 	</defs> 	 	<rect id="_BF7076E8-0AFA-4924-AF01-F17A36820325text_frame" oryx:anchors="bottom top right left" x="1" y="1" width="94" height="79" rx="10" ry="10" stroke="none" stroke-width="0" fill="none"/> 	<rect id="_BF7076E8-0AFA-4924-AF01-F17A36820325bg_frame" oryx:resize="vertical horizontal" x="0" y="0" width="100" height="80" rx="10" ry="10" stroke="#000000" stroke-width="1" fill="url(#_BF7076E8-0AFA-4924-AF01-F17A36820325background) #ffffcc"/> 		<text font-size="12" id="_BF7076E8-0AFA-4924-AF01-F17A36820325text_name" x="50" y="40" oryx:align="middle center" oryx:fittoelem="text_frame" stroke="black" text-anchor="middle" stroke-width="0pt" letter-spacing="-0.01px" fill="#000000" transform="rotate(0 50 40)" visibility="inherit" oryx:fontSize="12"><tspan x="50" y="40" dy="-1" id="ext-gen607">call DMN with a </tspan><tspan x="50" y="40" dy="11" id="ext-gen606">positive</tspan></text>     <g id="_BF7076E8-0AFA-4924-AF01-F17A36820325manualTask" transform="scale(0.7,0.7) translate(8,8)" display="none">     	<path oryx:anchors="top left" id="_BF7076E8-0AFA-4924-AF01-F17A36820325frame" style="opacity:1;fill:none;fill-opacity:1;stroke-width:1" d="M0.5,3.751l4.083-3.25c0,0,11.166,0.083,12.083,0.083s-2.417,2.917-1.5,2.917     s11.667,0,12.584,0c1.166,1.708-0.168,3.167-0.834,3.667s0.875,1.917-1,4.417c-0.75,0.25,0.75,1.875-1.333,3.333     c-1.167,0.583,0.583,1.542-1.25,2.833c-1.167,0-20.833,0.083-20.833,0.083l-2-1.333V3.751z" stroke="#000000"/> 		<path id="_BF7076E8-0AFA-4924-AF01-F17A36820325frame2" oryx:anchors="top left" style="opacity:1;fill:none;stroke-width:2" d="M 13.5 7 L 27 7" stroke="#000000"/> 		<path id="_BF7076E8-0AFA-4924-AF01-F17A36820325frame3" oryx:anchors="top left" style="opacity:1;fill:none;stroke-width:2" d="M 13.5 11 L 26 11" stroke="#000000"/> 		<path id="_BF7076E8-0AFA-4924-AF01-F17A36820325frame4" oryx:anchors="top left" style="opacity:1;fill:none;stroke-width:1.5" d="M 14 14.5 L 25 14.5" stroke="#000000"/> 		<path id="_BF7076E8-0AFA-4924-AF01-F17A36820325frame5" oryx:anchors="top left" style="opacity:1;fill:none;stroke-width:1.5" d="M 8.2 3.1 L 15 3.1" stroke="#000000"/> 	</g> 	 	<g id="_BF7076E8-0AFA-4924-AF01-F17A36820325businessRuleTask" transform="scale(0.7,0.7) translate(8,8)" display="inherit"> 		<rect id="_BF7076E8-0AFA-4924-AF01-F17A36820325frame6" oryx:anchors="top left" x="0" y="0" width="22" height="4" style="opacity:1;fill:#B3B1B3;fill-opacity:1;" stroke="#000000"/> 		<rect id="_BF7076E8-0AFA-4924-AF01-F17A36820325frame7" oryx:anchors="top left" x="0" y="4" style="opacity:1;fill:none;" width="22" height="12" stroke="#000000"/> 		<path id="_BF7076E8-0AFA-4924-AF01-F17A36820325frame8" oryx:anchors="top left" style="opacity:1;fill:none;" d="M 0 10 L 22 10" stroke="#000000"/> 		<path id="_BF7076E8-0AFA-4924-AF01-F17A36820325frame9" oryx:anchors="top left" style="opacity:1; fill:none;" d="M 7 4 L 7 16" stroke="#000000"/> 	</g> 	 	<g id="_BF7076E8-0AFA-4924-AF01-F17A36820325scriptTask" transform="scale(0.7,0.7) translate(8,8)" display="none"> 		<path oryx:anchors="top left" id="_BF7076E8-0AFA-4924-AF01-F17A36820325frame10" style="opacity:1;fill:none;" stroke="#000000" d="M6.402,0.5h14.5c0,0-5.833,2.833-5.833,5.583s4.417,6,4.417,9.167    s-4.167,5.083-4.167,5.083H0.235c0,0,5-2.667,5-5s-4.583-6.75-4.583-9.25S6.402,0.5,6.402,0.5z"/> 		<path oryx:anchors="top left" id="_BF7076E8-0AFA-4924-AF01-F17A36820325frame11" style="opacity:1;fill:none;stroke-width:1.5" d="M 3.5 4.5 L 13.5 4.5" stroke="#000000"/> 		<path oryx:anchors="top left" id="_BF7076E8-0AFA-4924-AF01-F17A36820325frame12" style="opacity:1;fill:none;stroke-width:1.5" d="M 3.8 8.5 L 13.8 8.5" stroke="#000000"/> 		<path oryx:anchors="top left" id="_BF7076E8-0AFA-4924-AF01-F17A36820325frame13" style="opacity:1;fill:none;stroke-width:1.5" d="M 6.3 12.5 L 16.3 12.5" stroke="#000000"/> 		<path oryx:anchors="top left" id="_BF7076E8-0AFA-4924-AF01-F17A36820325frame14" style="opacity:1;fill:none;stroke-width:1.5" d="M 6.5 16.5 L 16.5 16.5" stroke="#000000"/> 	</g> 	 	<g id="_BF7076E8-0AFA-4924-AF01-F17A36820325userTask" transform="scale(0.7,0.7) translate(8,8)" display="none"> 		<path id="_BF7076E8-0AFA-4924-AF01-F17A36820325frame15" oryx:anchors="top left" style="opacity:1;fill:#F4F6F7" stroke="#000000" d="M0.585,24.167h24.083v-7.833c0,0-2.333-3.917-7.083-5.167h-9.25    c-4.417,1.333-7.833,5.75-7.833,5.75L0.585,24.167z"/> 		<path id="_BF7076E8-0AFA-4924-AF01-F17A36820325frame16" oryx:anchors="top left" style="opacity:1;fill:none" d="M 6 20 L 6 24" stroke="#000000"/> 		<path id="_BF7076E8-0AFA-4924-AF01-F17A36820325frame17" oryx:anchors="top left" style="opacity:1;fill:none" d="M 20 20 L 20 24" stroke="#000000"/> 		<circle id="_BF7076E8-0AFA-4924-AF01-F17A36820325frame18" oryx:anchors="top left" fill="black" cx="13.002" cy="5.916" r="5.417" stroke="#000000"/> 		<path id="_BF7076E8-0AFA-4924-AF01-F17A36820325frame19" oryx:anchors="top left" style="opacity:1;fill:#F0EFF0;" stroke="#000000" d="M8.043,7.083c0,0,2.814-2.426,5.376-1.807s4.624-0.693,4.624-0.693    c0.25,1.688,0.042,3.75-1.458,5.584c0,0,1.083,0.75,1.083,1.5s0.125,1.875-1,3s-5.5,1.25-6.75,0S8.668,12.834,8.668,12    s0.583-1.25,1.25-1.917C8.835,9.5,7.419,7.708,8.043,7.083z"/> 	</g> 	 	<g id="_BF7076E8-0AFA-4924-AF01-F17A36820325serviceTask" transform="scale(0.7,0.7) translate(8,8)" display="none"> 		<polygon oryx:anchors="top left" id="_BF7076E8-0AFA-4924-AF01-F17A36820325frame20" style="opacity:1;fill:#ffffff" stroke="#000000" points="15.392,5.064 17.954,2.502 20.347,4.895 17.786,7.455     18.729,9.732 22.353,9.732 22.353,13.115 18.731,13.115 17.788,15.392 20.351,17.955 17.958,20.347 15.397,17.786 13.12,18.729     13.12,22.353 9.737,22.353 9.737,18.731 7.46,17.788 4.897,20.35 2.506,17.958 5.066,15.397 4.124,13.12 0.5,13.12 0.5,9.737     4.121,9.737 5.065,7.461 2.503,4.898 4.895,2.506 7.455,5.066 9.732,4.125 9.732,0.5 13.116,0.5 13.116,4.121 "/> 		<circle oryx:anchors="top left" id="_BF7076E8-0AFA-4924-AF01-F17A36820325frame21" style="opacity:1;fill:none" stroke="#000000" cx="11.427" cy="11.426" r="3.714"/> 		<polygon oryx:anchors="top left" id="_BF7076E8-0AFA-4924-AF01-F17A36820325frame22" style="opacity:1;fill:#ffffff" stroke="#000000" points="21.392,11.064 23.954,8.502 26.347,10.895 23.786,13.455     24.729,15.732 28.353,15.732 28.353,19.115 24.731,19.115 23.788,21.392 26.351,23.955 23.958,26.347 21.397,23.786 19.12,24.729     19.12,28.353 15.737,28.353 15.737,24.731 13.46,23.788 10.897,26.35 8.506,23.958 11.066,21.397 10.124,19.12 6.5,19.12     6.5,15.737 10.121,15.737 11.065,13.461 8.503,10.898 10.895,8.506 13.455,11.066 15.732,10.125 15.732,6.5 19.116,6.5     19.116,10.121 "/> 		<circle oryx:anchors="top left" id="_BF7076E8-0AFA-4924-AF01-F17A36820325frame23" style="opacity:1;fill:none;" stroke="#000000" cx="17.427" cy="17.426" r="3.714"/> 	</g> 	 	<g id="_BF7076E8-0AFA-4924-AF01-F17A36820325sendTask" display="none"> 		<path id="_BF7076E8-0AFA-4924-AF01-F17A36820325stframe24" oryx:anchors="left top" stroke="#FFFFFF" fill="black" stroke-width="1" d="M8,11 L8,21 L24,21 L24,11 L16,17z"/> 		<path id="_BF7076E8-0AFA-4924-AF01-F17A36820325stframe25" oryx:anchors="left top" stroke="#FFFFFF" fill="black" stroke-width="1" d="M7,10 L16,17 L25 10z"/> 	</g> 	 	<g id="_BF7076E8-0AFA-4924-AF01-F17A36820325receiveTask" display="none"> 		<path id="_BF7076E8-0AFA-4924-AF01-F17A36820325frame26" oryx:anchors="left top" stroke="#000000" fill="none" stroke-width="1" d="M8,11 L8,21 L24,21 L24,11z M8,11 L16,17 L24,11"/> 	</g> 	 	<g id="_BF7076E8-0AFA-4924-AF01-F17A36820325none" display="inherit"/>  	<g id="_BF7076E8-0AFA-4924-AF01-F17A36820325sequential" display="none">         <path oryx:anchors="bottom" fill="none" stroke="#000000" stroke-width="2" d="M46,76h10M46,72h10 M46,68h10" id="_BF7076E8-0AFA-4924-AF01-F17A36820325__BF7076E8-0AFA-4924-AF01-F17A36820325_20"/>     </g>   </g></g><g class="children" style="overflow:hidden"/><g class="edge"/></g><g class="controls"><g class="dockers"/><g class="magnets" transform="translate(195, 140)"><g pointer-events="all" display="none" transform="translate(-7, 12)"><circle cx="8" cy="8" r="4" stroke="none" fill="red" fill-opacity="0.3"/></g><g pointer-events="all" display="none" transform="translate(-7, 32)"><circle cx="8" cy="8" r="4" stroke="none" fill="red" fill-opacity="0.3"/></g><g pointer-events="all" display="none" transform="translate(-7, 52)"><circle cx="8" cy="8" r="4" stroke="none" fill="red" fill-opacity="0.3"/></g><g pointer-events="all" display="none" transform="translate(17, 71)"><circle cx="8" cy="8" r="4" stroke="none" fill="red" fill-opacity="0.3"/></g><g pointer-events="all" display="none" transform="translate(42, 71)"><circle cx="8" cy="8" r="4" stroke="none" fill="red" fill-opacity="0.3"/></g><g pointer-events="all" display="none" transform="translate(67, 71)"><circle cx="8" cy="8" r="4" stroke="none" fill="red" fill-opacity="0.3"/></g><g pointer-events="all" display="none" transform="translate(91, 12)"><circle cx="8" cy="8" r="4" stroke="none" fill="red" fill-opacity="0.3"/></g><g pointer-events="all" display="none" transform="translate(91, 32)"><circle cx="8" cy="8" r="4" stroke="none" fill="red" fill-opacity="0.3"/></g><g pointer-events="all" display="none" transform="translate(91, 52)"><circle cx="8" cy="8" r="4" stroke="none" fill="red" fill-opacity="0.3"/></g><g pointer-events="all" display="none" transform="translate(17, -7)"><circle cx="8" cy="8" r="4" stroke="none" fill="red" fill-opacity="0.3"/></g><g pointer-events="all" display="none" transform="translate(42, -7)"><circle cx="8" cy="8" r="4" stroke="none" fill="red" fill-opacity="0.3"/></g><g pointer-events="all" display="none" transform="translate(67, -7)"><circle cx="8" cy="8" r="4" stroke="none" fill="red" fill-opacity="0.3"/></g><g pointer-events="all" display="none" transform="translate(42, 32)"><circle cx="8" cy="8" r="4" stroke="none" fill="red" fill-opacity="0.3"/></g></g></g></g><g id="_4675948B-DAB7-4A00-853C-53B9F0D54708" bpmn2nodeid="_9457A21B-9050-4D0C-8770-87C7D4BACAEB"><g class="stencils" transform="translate(340, 140)"><g class="me"><g pointer-events="fill" oryx:minimumSize="50 40" id="_4675948B-DAB7-4A00-853C-53B9F0D54708">   	<defs id="_4675948B-DAB7-4A00-853C-53B9F0D54708__4675948B-DAB7-4A00-853C-53B9F0D54708_17"> 		<radialGradient id="_4675948B-DAB7-4A00-853C-53B9F0D54708background" cx="10%" cy="10%" r="100%" fx="10%" fy="10%"> 			<stop offset="0%" stop-color="#ffffff" stop-opacity="1" id="_4675948B-DAB7-4A00-853C-53B9F0D54708__4675948B-DAB7-4A00-853C-53B9F0D54708_18"/> 			<stop id="_4675948B-DAB7-4A00-853C-53B9F0D54708fill_el" offset="100%" stop-color="#fafad2" stop-opacity="1"/> 		</radialGradient> 		<radialGradient id="_4675948B-DAB7-4A00-853C-53B9F0D54708borderbackground" cx="10%" cy="10%" r="100%" fx="10%" fy="10%"> 			<stop offset="0%" stop-color="#ffffff" stop-opacity="1" id="_4675948B-DAB7-4A00-853C-53B9F0D54708__4675948B-DAB7-4A00-853C-53B9F0D54708_19"/> 			<stop id="_4675948B-DAB7-4A00-853C-53B9F0D54708fill_border" offset="100%" stop-color="#000000" stop-opacity="1" stroke="#000000"/> 		</radialGradient> 	</defs> 	 	<rect id="_4675948B-DAB7-4A00-853C-53B9F0D54708text_frame" oryx:anchors="bottom top right left" x="1" y="1" width="94" height="79" rx="10" ry="10" stroke="none" stroke-width="0" fill="none"/> 	<rect id="_4675948B-DAB7-4A00-853C-53B9F0D54708bg_frame" oryx:resize="vertical horizontal" x="0" y="0" width="100" height="80" rx="10" ry="10" stroke="#000000" stroke-width="1" fill="url(#_4675948B-DAB7-4A00-853C-53B9F0D54708background) #ffffcc"/> 		<text font-size="12" id="_4675948B-DAB7-4A00-853C-53B9F0D54708text_name" x="50" y="40" oryx:align="middle center" oryx:fittoelem="text_frame" stroke="black" text-anchor="middle" stroke-width="0pt" letter-spacing="-0.01px" fill="#000000" transform="rotate(0 50 40)" visibility="inherit" oryx:fontSize="12"><tspan x="50" y="40" dy="-7">printout </tspan><tspan x="50" y="40" dy="5">myProcessVari</tspan><tspan x="50" y="40" dy="17">able</tspan></text>     <g id="_4675948B-DAB7-4A00-853C-53B9F0D54708manualTask" transform="scale(0.7,0.7) translate(8,8)" display="none">     	<path oryx:anchors="top left" id="_4675948B-DAB7-4A00-853C-53B9F0D54708frame" style="opacity:1;fill:none;fill-opacity:1;stroke-width:1" d="M0.5,3.751l4.083-3.25c0,0,11.166,0.083,12.083,0.083s-2.417,2.917-1.5,2.917     s11.667,0,12.584,0c1.166,1.708-0.168,3.167-0.834,3.667s0.875,1.917-1,4.417c-0.75,0.25,0.75,1.875-1.333,3.333     c-1.167,0.583,0.583,1.542-1.25,2.833c-1.167,0-20.833,0.083-20.833,0.083l-2-1.333V3.751z" stroke="#000000"/> 		<path id="_4675948B-DAB7-4A00-853C-53B9F0D54708frame2" oryx:anchors="top left" style="opacity:1;fill:none;stroke-width:2" d="M 13.5 7 L 27 7" stroke="#000000"/> 		<path id="_4675948B-DAB7-4A00-853C-53B9F0D54708frame3" oryx:anchors="top left" style="opacity:1;fill:none;stroke-width:2" d="M 13.5 11 L 26 11" stroke="#000000"/> 		<path id="_4675948B-DAB7-4A00-853C-53B9F0D54708frame4" oryx:anchors="top left" style="opacity:1;fill:none;stroke-width:1.5" d="M 14 14.5 L 25 14.5" stroke="#000000"/> 		<path id="_4675948B-DAB7-4A00-853C-53B9F0D54708frame5" oryx:anchors="top left" style="opacity:1;fill:none;stroke-width:1.5" d="M 8.2 3.1 L 15 3.1" stroke="#000000"/> 	</g> 	 	<g id="_4675948B-DAB7-4A00-853C-53B9F0D54708businessRuleTask" transform="scale(0.7,0.7) translate(8,8)" display="none"> 		<rect id="_4675948B-DAB7-4A00-853C-53B9F0D54708frame6" oryx:anchors="top left" x="0" y="0" width="22" height="4" style="opacity:1;fill:#B3B1B3;fill-opacity:1;" stroke="#000000"/> 		<rect id="_4675948B-DAB7-4A00-853C-53B9F0D54708frame7" oryx:anchors="top left" x="0" y="4" style="opacity:1;fill:none;" width="22" height="12" stroke="#000000"/> 		<path id="_4675948B-DAB7-4A00-853C-53B9F0D54708frame8" oryx:anchors="top left" style="opacity:1;fill:none;" d="M 0 10 L 22 10" stroke="#000000"/> 		<path id="_4675948B-DAB7-4A00-853C-53B9F0D54708frame9" oryx:anchors="top left" style="opacity:1; fill:none;" d="M 7 4 L 7 16" stroke="#000000"/> 	</g> 	 	<g id="_4675948B-DAB7-4A00-853C-53B9F0D54708scriptTask" transform="scale(0.7,0.7) translate(8,8)" display="inherit"> 		<path oryx:anchors="top left" id="_4675948B-DAB7-4A00-853C-53B9F0D54708frame10" style="opacity:1;fill:none;" stroke="#000000" d="M6.402,0.5h14.5c0,0-5.833,2.833-5.833,5.583s4.417,6,4.417,9.167    s-4.167,5.083-4.167,5.083H0.235c0,0,5-2.667,5-5s-4.583-6.75-4.583-9.25S6.402,0.5,6.402,0.5z"/> 		<path oryx:anchors="top left" id="_4675948B-DAB7-4A00-853C-53B9F0D54708frame11" style="opacity:1;fill:none;stroke-width:1.5" d="M 3.5 4.5 L 13.5 4.5" stroke="#000000"/> 		<path oryx:anchors="top left" id="_4675948B-DAB7-4A00-853C-53B9F0D54708frame12" style="opacity:1;fill:none;stroke-width:1.5" d="M 3.8 8.5 L 13.8 8.5" stroke="#000000"/> 		<path oryx:anchors="top left" id="_4675948B-DAB7-4A00-853C-53B9F0D54708frame13" style="opacity:1;fill:none;stroke-width:1.5" d="M 6.3 12.5 L 16.3 12.5" stroke="#000000"/> 		<path oryx:anchors="top left" id="_4675948B-DAB7-4A00-853C-53B9F0D54708frame14" style="opacity:1;fill:none;stroke-width:1.5" d="M 6.5 16.5 L 16.5 16.5" stroke="#000000"/> 	</g> 	 	<g id="_4675948B-DAB7-4A00-853C-53B9F0D54708userTask" transform="scale(0.7,0.7) translate(8,8)" display="none"> 		<path id="_4675948B-DAB7-4A00-853C-53B9F0D54708frame15" oryx:anchors="top left" style="opacity:1;fill:#F4F6F7" stroke="#000000" d="M0.585,24.167h24.083v-7.833c0,0-2.333-3.917-7.083-5.167h-9.25    c-4.417,1.333-7.833,5.75-7.833,5.75L0.585,24.167z"/> 		<path id="_4675948B-DAB7-4A00-853C-53B9F0D54708frame16" oryx:anchors="top left" style="opacity:1;fill:none" d="M 6 20 L 6 24" stroke="#000000"/> 		<path id="_4675948B-DAB7-4A00-853C-53B9F0D54708frame17" oryx:anchors="top left" style="opacity:1;fill:none" d="M 20 20 L 20 24" stroke="#000000"/> 		<circle id="_4675948B-DAB7-4A00-853C-53B9F0D54708frame18" oryx:anchors="top left" fill="black" cx="13.002" cy="5.916" r="5.417" stroke="#000000"/> 		<path id="_4675948B-DAB7-4A00-853C-53B9F0D54708frame19" oryx:anchors="top left" style="opacity:1;fill:#F0EFF0;" stroke="#000000" d="M8.043,7.083c0,0,2.814-2.426,5.376-1.807s4.624-0.693,4.624-0.693    c0.25,1.688,0.042,3.75-1.458,5.584c0,0,1.083,0.75,1.083,1.5s0.125,1.875-1,3s-5.5,1.25-6.75,0S8.668,12.834,8.668,12    s0.583-1.25,1.25-1.917C8.835,9.5,7.419,7.708,8.043,7.083z"/> 	</g> 	 	<g id="_4675948B-DAB7-4A00-853C-53B9F0D54708serviceTask" transform="scale(0.7,0.7) translate(8,8)" display="none"> 		<polygon oryx:anchors="top left" id="_4675948B-DAB7-4A00-853C-53B9F0D54708frame20" style="opacity:1;fill:#ffffff" stroke="#000000" points="15.392,5.064 17.954,2.502 20.347,4.895 17.786,7.455     18.729,9.732 22.353,9.732 22.353,13.115 18.731,13.115 17.788,15.392 20.351,17.955 17.958,20.347 15.397,17.786 13.12,18.729     13.12,22.353 9.737,22.353 9.737,18.731 7.46,17.788 4.897,20.35 2.506,17.958 5.066,15.397 4.124,13.12 0.5,13.12 0.5,9.737     4.121,9.737 5.065,7.461 2.503,4.898 4.895,2.506 7.455,5.066 9.732,4.125 9.732,0.5 13.116,0.5 13.116,4.121 "/> 		<circle oryx:anchors="top left" id="_4675948B-DAB7-4A00-853C-53B9F0D54708frame21" style="opacity:1;fill:none" stroke="#000000" cx="11.427" cy="11.426" r="3.714"/> 		<polygon oryx:anchors="top left" id="_4675948B-DAB7-4A00-853C-53B9F0D54708frame22" style="opacity:1;fill:#ffffff" stroke="#000000" points="21.392,11.064 23.954,8.502 26.347,10.895 23.786,13.455     24.729,15.732 28.353,15.732 28.353,19.115 24.731,19.115 23.788,21.392 26.351,23.955 23.958,26.347 21.397,23.786 19.12,24.729     19.12,28.353 15.737,28.353 15.737,24.731 13.46,23.788 10.897,26.35 8.506,23.958 11.066,21.397 10.124,19.12 6.5,19.12     6.5,15.737 10.121,15.737 11.065,13.461 8.503,10.898 10.895,8.506 13.455,11.066 15.732,10.125 15.732,6.5 19.116,6.5     19.116,10.121 "/> 		<circle oryx:anchors="top left" id="_4675948B-DAB7-4A00-853C-53B9F0D54708frame23" style="opacity:1;fill:none;" stroke="#000000" cx="17.427" cy="17.426" r="3.714"/> 	</g> 	 	<g id="_4675948B-DAB7-4A00-853C-53B9F0D54708sendTask" display="none"> 		<path id="_4675948B-DAB7-4A00-853C-53B9F0D54708stframe24" oryx:anchors="left top" stroke="#FFFFFF" fill="black" stroke-width="1" d="M8,11 L8,21 L24,21 L24,11 L16,17z"/> 		<path id="_4675948B-DAB7-4A00-853C-53B9F0D54708stframe25" oryx:anchors="left top" stroke="#FFFFFF" fill="black" stroke-width="1" d="M7,10 L16,17 L25 10z"/> 	</g> 	 	<g id="_4675948B-DAB7-4A00-853C-53B9F0D54708receiveTask" display="none"> 		<path id="_4675948B-DAB7-4A00-853C-53B9F0D54708frame26" oryx:anchors="left top" stroke="#000000" fill="none" stroke-width="1" d="M8,11 L8,21 L24,21 L24,11z M8,11 L16,17 L24,11"/> 	</g> 	 	<g id="_4675948B-DAB7-4A00-853C-53B9F0D54708none" display="inherit"/>  	<g id="_4675948B-DAB7-4A00-853C-53B9F0D54708sequential" display="none">         <path oryx:anchors="bottom" fill="none" stroke="#000000" stroke-width="2" d="M46,76h10M46,72h10 M46,68h10" id="_4675948B-DAB7-4A00-853C-53B9F0D54708__4675948B-DAB7-4A00-853C-53B9F0D54708_20"/>     </g>   </g></g><g class="children" style="overflow:hidden"/><g class="edge"/></g><g class="controls"><g class="dockers"/><g class="magnets" transform="translate(340, 140)"><g pointer-events="all" display="none" transform="translate(-7, 12)"><circle cx="8" cy="8" r="4" stroke="none" fill="red" fill-opacity="0.3"/></g><g pointer-events="all" display="none" transform="translate(-7, 32)"><circle cx="8" cy="8" r="4" stroke="none" fill="red" fill-opacity="0.3"/></g><g pointer-events="all" display="none" transform="translate(-7, 52)"><circle cx="8" cy="8" r="4" stroke="none" fill="red" fill-opacity="0.3"/></g><g pointer-events="all" display="none" transform="translate(17, 71)"><circle cx="8" cy="8" r="4" stroke="none" fill="red" fill-opacity="0.3"/></g><g pointer-events="all" display="none" transform="translate(42, 71)"><circle cx="8" cy="8" r="4" stroke="none" fill="red" fill-opacity="0.3"/></g><g pointer-events="all" display="none" transform="translate(67, 71)"><circle cx="8" cy="8" r="4" stroke="none" fill="red" fill-opacity="0.3"/></g><g pointer-events="all" display="none" transform="translate(91, 12)"><circle cx="8" cy="8" r="4" stroke="none" fill="red" fill-opacity="0.3"/></g><g pointer-events="all" display="none" transform="translate(91, 32)"><circle cx="8" cy="8" r="4" stroke="none" fill="red" fill-opacity="0.3"/></g><g pointer-events="all" display="none" transform="translate(91, 52)"><circle cx="8" cy="8" r="4" stroke="none" fill="red" fill-opacity="0.3"/></g><g pointer-events="all" display="none" transform="translate(17, -7)"><circle cx="8" cy="8" r="4" stroke="none" fill="red" fill-opacity="0.3"/></g><g pointer-events="all" display="none" transform="translate(42, -7)"><circle cx="8" cy="8" r="4" stroke="none" fill="red" fill-opacity="0.3"/></g><g pointer-events="all" display="none" transform="translate(67, -7)"><circle cx="8" cy="8" r="4" stroke="none" fill="red" fill-opacity="0.3"/></g><g pointer-events="all" display="none" transform="translate(42, 32)"><circle cx="8" cy="8" r="4" stroke="none" fill="red" fill-opacity="0.3"/></g></g></g></g><g id="_724EE4E8-4A3F-44B4-92BC-6DFA180BF78A" bpmn2nodeid="_B3A5767F-D6B4-4BD6-93C7-03B99652AC3D"><g class="stencils" transform="translate(485, 166)"><g class="me"><g pointer-events="fill" id="_724EE4E8-4A3F-44B4-92BC-6DFA180BF78A">      <defs id="_724EE4E8-4A3F-44B4-92BC-6DFA180BF78A__724EE4E8-4A3F-44B4-92BC-6DFA180BF78A_5"> 		<radialGradient id="_724EE4E8-4A3F-44B4-92BC-6DFA180BF78Abackground" cx="10%" cy="10%" r="100%" fx="10%" fy="10%"> 			<stop offset="0%" stop-color="#ffffff" stop-opacity="1" id="_724EE4E8-4A3F-44B4-92BC-6DFA180BF78A__724EE4E8-4A3F-44B4-92BC-6DFA180BF78A_6"/> 			<stop id="_724EE4E8-4A3F-44B4-92BC-6DFA180BF78Afill_el" offset="100%" stop-color="#ff6347" stop-opacity="1"/> 		</radialGradient> 	</defs> 	     <circle id="_724EE4E8-4A3F-44B4-92BC-6DFA180BF78Abg_frame" cx="14" cy="14" r="14" stroke="#000000" fill="url(#_724EE4E8-4A3F-44B4-92BC-6DFA180BF78Abackground) white" stroke-width="3"/> 	<text font-size="11" id="_724EE4E8-4A3F-44B4-92BC-6DFA180BF78Atext_name" x="14" y="30" oryx:align="top center" stroke="black" stroke-width="0pt" letter-spacing="-0.01px" fill="#000000" text-anchor="middle" transform="rotate(0 14 30)" visibility="inherit" oryx:fontSize="11"/>   </g></g><g class="children" style="overflow:hidden"/><g class="edge"/></g><g class="controls"><g class="dockers"/><g class="magnets" transform="translate(485, 166)"><g pointer-events="all" display="none" transform="translate(6, 6)"><circle cx="8" cy="8" r="4" stroke="none" fill="red" fill-opacity="0.3"/></g></g></g></g><g id="_AD7CED3E-9993-4C9B-88C1-3E3DDFF101CF" bpmn2nodeid="_949F14A5-B010-4365-8FCD-33F1249ECC10"><g class="stencils" transform="translate(195, 300)"><g class="me"><g pointer-events="fill" oryx:minimumSize="50 40" id="_AD7CED3E-9993-4C9B-88C1-3E3DDFF101CF">   	<defs id="_AD7CED3E-9993-4C9B-88C1-3E3DDFF101CF__AD7CED3E-9993-4C9B-88C1-3E3DDFF101CF_17"> 		<radialGradient id="_AD7CED3E-9993-4C9B-88C1-3E3DDFF101CFbackground" cx="10%" cy="10%" r="100%" fx="10%" fy="10%"> 			<stop offset="0%" stop-color="#ffffff" stop-opacity="1" id="_AD7CED3E-9993-4C9B-88C1-3E3DDFF101CF__AD7CED3E-9993-4C9B-88C1-3E3DDFF101CF_18"/> 			<stop id="_AD7CED3E-9993-4C9B-88C1-3E3DDFF101CFfill_el" offset="100%" stop-color="#fafad2" stop-opacity="1"/> 		</radialGradient> 		<radialGradient id="_AD7CED3E-9993-4C9B-88C1-3E3DDFF101CFborderbackground" cx="10%" cy="10%" r="100%" fx="10%" fy="10%"> 			<stop offset="0%" stop-color="#ffffff" stop-opacity="1" id="_AD7CED3E-9993-4C9B-88C1-3E3DDFF101CF__AD7CED3E-9993-4C9B-88C1-3E3DDFF101CF_19"/> 			<stop id="_AD7CED3E-9993-4C9B-88C1-3E3DDFF101CFfill_border" offset="100%" stop-color="#000000" stop-opacity="1" stroke="#000000"/> 		</radialGradient> 	</defs> 	 	<rect id="_AD7CED3E-9993-4C9B-88C1-3E3DDFF101CFtext_frame" oryx:anchors="bottom top right left" x="1" y="1" width="94" height="79" rx="10" ry="10" stroke="none" stroke-width="0" fill="none"/> 	<rect id="_AD7CED3E-9993-4C9B-88C1-3E3DDFF101CFbg_frame" oryx:resize="vertical horizontal" x="0" y="0" width="100" height="80" rx="10" ry="10" stroke="#000000" stroke-width="1" fill="url(#_AD7CED3E-9993-4C9B-88C1-3E3DDFF101CFbackground) #ffffcc"/> 		<text font-size="12" id="_AD7CED3E-9993-4C9B-88C1-3E3DDFF101CFtext_name" x="50" y="40" oryx:align="middle center" oryx:fittoelem="text_frame" stroke="black" text-anchor="middle" stroke-width="0pt" letter-spacing="-0.01px" fill="#000000" transform="rotate(0 50 40)" visibility="inherit" oryx:fontSize="12"><tspan x="50" y="40" dy="5" id="ext-gen728">init script</tspan></text>     <g id="_AD7CED3E-9993-4C9B-88C1-3E3DDFF101CFmanualTask" transform="scale(0.7,0.7) translate(8,8)" display="none">     	<path oryx:anchors="top left" id="_AD7CED3E-9993-4C9B-88C1-3E3DDFF101CFframe" style="opacity:1;fill:none;fill-opacity:1;stroke-width:1" d="M0.5,3.751l4.083-3.25c0,0,11.166,0.083,12.083,0.083s-2.417,2.917-1.5,2.917     s11.667,0,12.584,0c1.166,1.708-0.168,3.167-0.834,3.667s0.875,1.917-1,4.417c-0.75,0.25,0.75,1.875-1.333,3.333     c-1.167,0.583,0.583,1.542-1.25,2.833c-1.167,0-20.833,0.083-20.833,0.083l-2-1.333V3.751z" stroke="#000000"/> 		<path id="_AD7CED3E-9993-4C9B-88C1-3E3DDFF101CFframe2" oryx:anchors="top left" style="opacity:1;fill:none;stroke-width:2" d="M 13.5 7 L 27 7" stroke="#000000"/> 		<path id="_AD7CED3E-9993-4C9B-88C1-3E3DDFF101CFframe3" oryx:anchors="top left" style="opacity:1;fill:none;stroke-width:2" d="M 13.5 11 L 26 11" stroke="#000000"/> 		<path id="_AD7CED3E-9993-4C9B-88C1-3E3DDFF101CFframe4" oryx:anchors="top left" style="opacity:1;fill:none;stroke-width:1.5" d="M 14 14.5 L 25 14.5" stroke="#000000"/> 		<path id="_AD7CED3E-9993-4C9B-88C1-3E3DDFF101CFframe5" oryx:anchors="top left" style="opacity:1;fill:none;stroke-width:1.5" d="M 8.2 3.1 L 15 3.1" stroke="#000000"/> 	</g> 	 	<g id="_AD7CED3E-9993-4C9B-88C1-3E3DDFF101CFbusinessRuleTask" transform="scale(0.7,0.7) translate(8,8)" display="none"> 		<rect id="_AD7CED3E-9993-4C9B-88C1-3E3DDFF101CFframe6" oryx:anchors="top left" x="0" y="0" width="22" height="4" style="opacity:1;fill:#B3B1B3;fill-opacity:1;" stroke="#000000"/> 		<rect id="_AD7CED3E-9993-4C9B-88C1-3E3DDFF101CFframe7" oryx:anchors="top left" x="0" y="4" style="opacity:1;fill:none;" width="22" height="12" stroke="#000000"/> 		<path id="_AD7CED3E-9993-4C9B-88C1-3E3DDFF101CFframe8" oryx:anchors="top left" style="opacity:1;fill:none;" d="M 0 10 L 22 10" stroke="#000000"/> 		<path id="_AD7CED3E-9993-4C9B-88C1-3E3DDFF101CFframe9" oryx:anchors="top left" style="opacity:1; fill:none;" d="M 7 4 L 7 16" stroke="#000000"/> 	</g> 	 	<g id="_AD7CED3E-9993-4C9B-88C1-3E3DDFF101CFscriptTask" transform="scale(0.7,0.7) translate(8,8)" display="inherit"> 		<path oryx:anchors="top left" id="_AD7CED3E-9993-4C9B-88C1-3E3DDFF101CFframe10" style="opacity:1;fill:none;" stroke="#000000" d="M6.402,0.5h14.5c0,0-5.833,2.833-5.833,5.583s4.417,6,4.417,9.167    s-4.167,5.083-4.167,5.083H0.235c0,0,5-2.667,5-5s-4.583-6.75-4.583-9.25S6.402,0.5,6.402,0.5z"/> 		<path oryx:anchors="top left" id="_AD7CED3E-9993-4C9B-88C1-3E3DDFF101CFframe11" style="opacity:1;fill:none;stroke-width:1.5" d="M 3.5 4.5 L 13.5 4.5" stroke="#000000"/> 		<path oryx:anchors="top left" id="_AD7CED3E-9993-4C9B-88C1-3E3DDFF101CFframe12" style="opacity:1;fill:none;stroke-width:1.5" d="M 3.8 8.5 L 13.8 8.5" stroke="#000000"/> 		<path oryx:anchors="top left" id="_AD7CED3E-9993-4C9B-88C1-3E3DDFF101CFframe13" style="opacity:1;fill:none;stroke-width:1.5" d="M 6.3 12.5 L 16.3 12.5" stroke="#000000"/> 		<path oryx:anchors="top left" id="_AD7CED3E-9993-4C9B-88C1-3E3DDFF101CFframe14" style="opacity:1;fill:none;stroke-width:1.5" d="M 6.5 16.5 L 16.5 16.5" stroke="#000000"/> 	</g> 	 	<g id="_AD7CED3E-9993-4C9B-88C1-3E3DDFF101CFuserTask" transform="scale(0.7,0.7) translate(8,8)" display="none"> 		<path id="_AD7CED3E-9993-4C9B-88C1-3E3DDFF101CFframe15" oryx:anchors="top left" style="opacity:1;fill:#F4F6F7" stroke="#000000" d="M0.585,24.167h24.083v-7.833c0,0-2.333-3.917-7.083-5.167h-9.25    c-4.417,1.333-7.833,5.75-7.833,5.75L0.585,24.167z"/> 		<path id="_AD7CED3E-9993-4C9B-88C1-3E3DDFF101CFframe16" oryx:anchors="top left" style="opacity:1;fill:none" d="M 6 20 L 6 24" stroke="#000000"/> 		<path id="_AD7CED3E-9993-4C9B-88C1-3E3DDFF101CFframe17" oryx:anchors="top left" style="opacity:1;fill:none" d="M 20 20 L 20 24" stroke="#000000"/> 		<circle id="_AD7CED3E-9993-4C9B-88C1-3E3DDFF101CFframe18" oryx:anchors="top left" fill="black" cx="13.002" cy="5.916" r="5.417" stroke="#000000"/> 		<path id="_AD7CED3E-9993-4C9B-88C1-3E3DDFF101CFframe19" oryx:anchors="top left" style="opacity:1;fill:#F0EFF0;" stroke="#000000" d="M8.043,7.083c0,0,2.814-2.426,5.376-1.807s4.624-0.693,4.624-0.693    c0.25,1.688,0.042,3.75-1.458,5.584c0,0,1.083,0.75,1.083,1.5s0.125,1.875-1,3s-5.5,1.25-6.75,0S8.668,12.834,8.668,12    s0.583-1.25,1.25-1.917C8.835,9.5,7.419,7.708,8.043,7.083z"/> 	</g> 	 	<g id="_AD7CED3E-9993-4C9B-88C1-3E3DDFF101CFserviceTask" transform="scale(0.7,0.7) translate(8,8)" display="none"> 		<polygon oryx:anchors="top left" id="_AD7CED3E-9993-4C9B-88C1-3E3DDFF101CFframe20" style="opacity:1;fill:#ffffff" stroke="#000000" points="15.392,5.064 17.954,2.502 20.347,4.895 17.786,7.455     18.729,9.732 22.353,9.732 22.353,13.115 18.731,13.115 17.788,15.392 20.351,17.955 17.958,20.347 15.397,17.786 13.12,18.729     13.12,22.353 9.737,22.353 9.737,18.731 7.46,17.788 4.897,20.35 2.506,17.958 5.066,15.397 4.124,13.12 0.5,13.12 0.5,9.737     4.121,9.737 5.065,7.461 2.503,4.898 4.895,2.506 7.455,5.066 9.732,4.125 9.732,0.5 13.116,0.5 13.116,4.121 "/> 		<circle oryx:anchors="top left" id="_AD7CED3E-9993-4C9B-88C1-3E3DDFF101CFframe21" style="opacity:1;fill:none" stroke="#000000" cx="11.427" cy="11.426" r="3.714"/> 		<polygon oryx:anchors="top left" id="_AD7CED3E-9993-4C9B-88C1-3E3DDFF101CFframe22" style="opacity:1;fill:#ffffff" stroke="#000000" points="21.392,11.064 23.954,8.502 26.347,10.895 23.786,13.455     24.729,15.732 28.353,15.732 28.353,19.115 24.731,19.115 23.788,21.392 26.351,23.955 23.958,26.347 21.397,23.786 19.12,24.729     19.12,28.353 15.737,28.353 15.737,24.731 13.46,23.788 10.897,26.35 8.506,23.958 11.066,21.397 10.124,19.12 6.5,19.12     6.5,15.737 10.121,15.737 11.065,13.461 8.503,10.898 10.895,8.506 13.455,11.066 15.732,10.125 15.732,6.5 19.116,6.5     19.116,10.121 "/> 		<circle oryx:anchors="top left" id="_AD7CED3E-9993-4C9B-88C1-3E3DDFF101CFframe23" style="opacity:1;fill:none;" stroke="#000000" cx="17.427" cy="17.426" r="3.714"/> 	</g> 	 	<g id="_AD7CED3E-9993-4C9B-88C1-3E3DDFF101CFsendTask" display="none"> 		<path id="_AD7CED3E-9993-4C9B-88C1-3E3DDFF101CFstframe24" oryx:anchors="left top" stroke="#FFFFFF" fill="black" stroke-width="1" d="M8,11 L8,21 L24,21 L24,11 L16,17z"/> 		<path id="_AD7CED3E-9993-4C9B-88C1-3E3DDFF101CFstframe25" oryx:anchors="left top" stroke="#FFFFFF" fill="black" stroke-width="1" d="M7,10 L16,17 L25 10z"/> 	</g> 	 	<g id="_AD7CED3E-9993-4C9B-88C1-3E3DDFF101CFreceiveTask" display="none"> 		<path id="_AD7CED3E-9993-4C9B-88C1-3E3DDFF101CFframe26" oryx:anchors="left top" stroke="#000000" fill="none" stroke-width="1" d="M8,11 L8,21 L24,21 L24,11z M8,11 L16,17 L24,11"/> 	</g> 	 	<g id="_AD7CED3E-9993-4C9B-88C1-3E3DDFF101CFnone" display="inherit"/>  	<g id="_AD7CED3E-9993-4C9B-88C1-3E3DDFF101CFsequential" display="none">         <path oryx:anchors="bottom" fill="none" stroke="#000000" stroke-width="2" d="M46,76h10M46,72h10 M46,68h10" id="_AD7CED3E-9993-4C9B-88C1-3E3DDFF101CF__AD7CED3E-9993-4C9B-88C1-3E3DDFF101CF_20"/>     </g>   </g></g><g class="children" style="overflow:hidden"/><g class="edge"/></g><g class="controls"><g class="dockers"/><g class="magnets" transform="translate(195, 300)"><g pointer-events="all" display="none" transform="translate(-7, 12)"><circle cx="8" cy="8" r="4" stroke="none" fill="red" fill-opacity="0.3"/></g><g pointer-events="all" display="none" transform="translate(-7, 32)"><circle cx="8" cy="8" r="4" stroke="none" fill="red" fill-opacity="0.3"/></g><g pointer-events="all" display="none" transform="translate(-7, 52)"><circle cx="8" cy="8" r="4" stroke="none" fill="red" fill-opacity="0.3"/></g><g pointer-events="all" display="none" transform="translate(17, 71)"><circle cx="8" cy="8" r="4" stroke="none" fill="red" fill-opacity="0.3"/></g><g pointer-events="all" display="none" transform="translate(42, 71)"><circle cx="8" cy="8" r="4" stroke="none" fill="red" fill-opacity="0.3"/></g><g pointer-events="all" display="none" transform="translate(67, 71)"><circle cx="8" cy="8" r="4" stroke="none" fill="red" fill-opacity="0.3"/></g><g pointer-events="all" display="none" transform="translate(91, 12)"><circle cx="8" cy="8" r="4" stroke="none" fill="red" fill-opacity="0.3"/></g><g pointer-events="all" display="none" transform="translate(91, 32)"><circle cx="8" cy="8" r="4" stroke="none" fill="red" fill-opacity="0.3"/></g><g pointer-events="all" display="none" transform="translate(91, 52)"><circle cx="8" cy="8" r="4" stroke="none" fill="red" fill-opacity="0.3"/></g><g pointer-events="all" display="none" transform="translate(17, -7)"><circle cx="8" cy="8" r="4" stroke="none" fill="red" fill-opacity="0.3"/></g><g pointer-events="all" display="none" transform="translate(42, -7)"><circle cx="8" cy="8" r="4" stroke="none" fill="red" fill-opacity="0.3"/></g><g pointer-events="all" display="none" transform="translate(67, -7)"><circle cx="8" cy="8" r="4" stroke="none" fill="red" fill-opacity="0.3"/></g><g pointer-events="all" display="none" transform="translate(42, 32)"><circle cx="8" cy="8" r="4" stroke="none" fill="red" fill-opacity="0.3"/></g></g></g></g></g><g class="edge"><g id="_CBAFA8DA-E7D6-4BBA-B25D-E6B103D8C44F" bpmn2nodeid="_BD867440-43B1-4250-B7A2-C00FA012C3E5"><g class="stencils"><g class="me"><g pointer-events="painted" bpmn2nodeid="_ACE6994A-6370-44E0-B736-7187D7BDE343"><path id="_CBAFA8DA-E7D6-4BBA-B25D-E6B103D8C44F_1" d="M295.84375 180L339.15625 180 " stroke="#000000" fill="none" stroke-width="2" stroke-linecap="round" stroke-linejoin="round" marker-start="url(#_CBAFA8DA-E7D6-4BBA-B25D-E6B103D8C44Fstart)" marker-end="url(#_CBAFA8DA-E7D6-4BBA-B25D-E6B103D8C44Fend)"/></g><text id="_CBAFA8DA-E7D6-4BBA-B25D-E6B103D8C44Ftext_name" font-size="12" x="309.84375" y="166" oryx:edgePosition="startTop" stroke-width="0pt" letter-spacing="-0.01px" fill="#000000" text-anchor="start" transform="rotate(360 295.84375 180)" visibility="inherit" oryx:fontSize="12"/></g><g class="children" style="overflow:hidden"/><g class="edge"/></g><g class="controls"><g class="dockers"/><g class="magnets"/></g></g><g id="_8F59BBD0-87A7-4B9D-B8B4-0E4C3227F277" bpmn2nodeid="_021DD051-45DB-443E-A563-148F423DBAC3"><g class="stencils"><g class="me"><g pointer-events="painted" bpmn2nodeid="_040CAF63-D550-41A8-9BC0-32C008D5C943"><path id="_8F59BBD0-87A7-4B9D-B8B4-0E4C3227F277_1" d="M440.390625 180L484.375 180 " stroke="#000000" fill="none" stroke-width="2" stroke-linecap="round" stroke-linejoin="round" marker-start="url(#_8F59BBD0-87A7-4B9D-B8B4-0E4C3227F277start)" marker-end="url(#_8F59BBD0-87A7-4B9D-B8B4-0E4C3227F277end)"/></g><text id="_8F59BBD0-87A7-4B9D-B8B4-0E4C3227F277text_name" font-size="12" x="454.390625" y="166" oryx:edgePosition="startTop" stroke-width="0pt" letter-spacing="-0.01px" fill="#000000" text-anchor="start" transform="rotate(360 440.390625 180)" visibility="inherit" oryx:fontSize="12"/></g><g class="children" style="overflow:hidden"/><g class="edge"/></g><g class="controls"><g class="dockers"/><g class="magnets"/></g></g><g id="_50483BA4-36F1-406C-A515-1A2A8465E00C" bpmn2nodeid="_9570524C-1853-45C1-B2A8-DE356FA3DFE5"><g class="stencils"><g class="me"><g pointer-events="painted" bpmn2nodeid="_7B9BB3B9-BC66-4C56-B8ED-91D031A52C00"><path id="_50483BA4-36F1-406C-A515-1A2A8465E00C_1" d="M143.73059132288708 192.69904192419938L217.36315867711292 299.8009580758006 " stroke="#000000" fill="none" stroke-width="2" stroke-linecap="round" stroke-linejoin="round" marker-start="url(#_50483BA4-36F1-406C-A515-1A2A8465E00Cstart)" marker-end="url(#_50483BA4-36F1-406C-A515-1A2A8465E00Cend)"/></g><text id="_50483BA4-36F1-406C-A515-1A2A8465E00Ctext_name" font-size="12" x="157.73059132288708" y="178.69904192419938" oryx:edgePosition="startTop" stroke-width="0pt" letter-spacing="-0.01px" fill="#000000" text-anchor="start" transform="rotate(55.491477012331586 143.73059132288708 192.69904192419938)" visibility="inherit" oryx:fontSize="12"/></g><g class="children" style="overflow:hidden"/><g class="edge"/></g><g class="controls"><g class="dockers"/><g class="magnets"/></g></g><g id="_B41399E1-3C9A-46FB-B031-12BFEF8BFC5F" bpmn2nodeid="_B1679130-5FF7-45E6-B8AF-54D6A09114C0"><g class="stencils"><g class="me"><g pointer-events="painted" bpmn2nodeid="_92562843-3144-4F43-B7C2-55DA6CFC542B"><path id="_B41399E1-3C9A-46FB-B031-12BFEF8BFC5F_1" d="M245 299.625L245 221 " stroke="#000000" fill="none" stroke-width="2" stroke-linecap="round" stroke-linejoin="round" marker-start="url(#_B41399E1-3C9A-46FB-B031-12BFEF8BFC5Fstart)" marker-end="url(#_B41399E1-3C9A-46FB-B031-12BFEF8BFC5Fend)"/></g><text id="_B41399E1-3C9A-46FB-B031-12BFEF8BFC5Ftext_name" font-size="12" x="259" y="285.625" oryx:edgePosition="startTop" stroke-width="0pt" letter-spacing="-0.01px" fill="#000000" text-anchor="start" transform="rotate(270 245 299.625)" visibility="inherit" oryx:fontSize="12"/></g><g class="children" style="overflow:hidden"/><g class="edge"/></g><g class="controls"><g class="dockers"/><g class="magnets"/></g></g></g><text id="_5ED10DED-8637-42BB-B1CC-BB6FB7F24677" style="stroke-width:1;fill:rgb(177,194,214);font-family:arial;font-weight:bold" font-size="12" onclick="ORYX.Plugins.CanvasTitle.openTextualAnalysis()" onmouseover="ORYX.Plugins.CanvasTitle.addToolTip('_5ED10DED-8637-42BB-B1CC-BB6FB7F24677')" transform="translate(10, 20)">PONProcess v.1.0 (barcellona20180115.PONProcess)</text></g></g></svg>